<svg xmlns="http://www.w3.org/2000/svg" width="510" height="489" viewBox="0 0 510 489">
<g>
<path d="M 266.50 368.38 C259.94,370.12 251.20,370.35 246.50,368.91 C244.85,368.41 241.64,368.26 239.36,368.59 C236.36,369.03 234.51,368.73 232.62,367.49 C230.94,366.39 229.11,366.01 227.47,366.42 C225.86,366.82 223.23,366.31 220.33,365.03 C217.81,363.91 214.30,363.00 212.53,363.00 C210.65,363.00 208.60,362.22 207.61,361.12 C206.67,360.09 204.13,358.96 201.95,358.61 C199.78,358.26 198.00,357.60 198.00,357.15 C198.00,356.69 196.27,355.80 194.16,355.17 C192.05,354.53 189.28,353.11 188.01,352.01 C186.74,350.90 185.30,350.00 184.83,350.00 C184.06,350.00 179.91,345.92 176.21,341.53 C175.50,340.69 174.04,340.00 172.97,340.00 C171.72,340.00 168.13,336.51 163.01,330.33 C158.60,325.01 155.00,320.28 155.00,319.83 C155.00,319.37 154.36,319.00 153.57,319.00 C152.78,319.00 151.87,318.16 151.54,317.13 C151.22,316.10 150.06,314.46 148.97,313.48 C147.89,312.49 147.00,310.80 147.00,309.72 C147.00,308.64 145.68,305.22 144.07,302.13 C138.31,291.06 137.03,287.93 135.02,280.09 C132.18,268.97 131.59,263.34 131.75,249.00 C131.93,232.81 133.36,219.63 135.24,216.75 C136.07,215.50 137.06,213.02 137.45,211.25 C137.84,209.47 138.57,207.77 139.08,207.45 C139.58,207.14 140.00,206.16 140.00,205.27 C140.00,203.01 145.89,191.17 147.47,190.25 C148.19,189.84 149.61,187.86 150.64,185.87 C154.79,177.76 169.14,161.63 176.73,156.51 C178.80,155.12 182.98,151.97 186.00,149.53 C189.02,147.08 191.98,145.06 192.56,145.04 C193.14,145.02 195.11,143.89 196.95,142.54 C198.78,141.19 202.35,139.78 204.89,139.41 C207.43,139.04 211.07,137.95 213.00,136.98 C217.68,134.64 228.25,132.00 232.96,132.00 C235.05,132.00 238.27,131.40 240.13,130.66 C245.22,128.64 259.94,128.53 264.62,130.49 C266.75,131.37 269.55,131.83 270.88,131.49 C275.30,130.39 283.99,132.08 286.33,134.50 C287.52,135.74 289.62,137.01 291.00,137.31 C297.27,138.71 306.90,142.56 311.00,145.32 C313.48,146.99 316.72,149.17 318.21,150.17 C319.70,151.18 321.31,152.00 321.79,152.00 C322.27,152.00 326.81,156.16 331.87,161.25 C345.86,175.30 347.00,176.59 347.00,178.33 C347.00,179.23 348.18,180.73 349.62,181.67 C351.06,182.61 353.12,185.44 354.19,187.94 C355.26,190.45 356.77,193.20 357.54,194.05 C360.01,196.77 363.87,204.78 364.60,208.70 C364.99,210.79 365.92,213.95 366.66,215.72 C367.40,217.49 368.00,220.73 368.00,222.93 C368.00,225.13 368.76,229.08 369.69,231.72 C370.84,234.99 371.39,239.82 371.43,247.00 C371.52,264.27 370.89,269.75 367.87,278.21 C366.29,282.62 365.00,287.10 365.00,288.15 C365.00,289.21 364.10,291.84 363.00,294.00 C361.90,296.16 361.00,298.90 361.00,300.10 C361.00,301.30 360.30,302.79 359.44,303.42 C358.11,304.39 357.42,306.09 357.08,309.20 C357.01,309.83 355.34,311.82 350.12,317.50 C349.11,318.60 347.97,320.51 347.58,321.75 C347.18,322.99 346.46,324.00 345.96,324.00 C345.46,324.00 344.37,325.32 343.54,326.93 C341.40,331.06 329.11,343.00 326.99,343.00 C326.02,343.00 324.49,344.12 323.59,345.50 C322.69,346.88 321.41,348.00 320.74,348.00 C320.07,348.00 317.26,349.55 314.51,351.44 C311.75,353.34 307.93,355.17 306.00,355.50 C304.08,355.84 301.58,356.99 300.44,358.06 C299.30,359.13 297.98,360.00 297.50,360.00 C297.02,360.00 295.58,360.99 294.29,362.19 C292.55,363.83 290.92,364.33 287.89,364.15 C285.65,364.02 283.13,364.48 282.28,365.18 C281.44,365.88 278.89,366.53 276.63,366.63 C274.36,366.72 269.80,367.51 266.50,368.38 ZM 231.16 360.93 C232.45,361.45 233.91,361.90 234.42,361.94 C236.05,362.05 238.88,358.86 238.36,357.50 C237.44,355.09 241.83,354.73 245.38,356.93 C247.23,358.07 250.34,359.00 252.31,359.00 C254.27,359.00 256.14,359.41 256.45,359.92 C256.76,360.42 260.27,361.13 264.26,361.50 C270.16,362.05 272.51,361.81 277.00,360.18 C280.02,359.09 284.30,357.98 286.50,357.71 C291.63,357.08 310.80,347.88 317.41,342.87 C320.21,340.75 323.02,339.01 323.66,339.00 C325.15,339.00 341.00,322.09 341.00,320.51 C341.00,319.85 341.90,318.27 343.00,317.00 C344.10,315.73 345.00,314.12 345.00,313.42 C345.00,312.72 346.01,311.33 347.25,310.32 C352.31,306.22 357.97,288.69 358.47,275.56 C358.79,267.17 359.16,265.38 360.81,264.06 C361.89,263.20 363.24,261.58 363.81,260.45 C365.23,257.67 364.71,233.15 363.18,230.32 C362.53,229.11 362.00,226.86 361.99,225.32 C361.98,223.77 361.31,220.29 360.49,217.59 C359.67,214.89 359.00,211.47 359.00,209.98 C359.00,208.45 357.51,205.34 355.53,202.75 C353.63,200.25 351.30,196.25 350.36,193.85 C349.43,191.46 346.94,187.30 344.83,184.62 C342.72,181.94 341.00,179.40 341.00,178.98 C341.00,176.43 316.34,154.00 313.53,154.00 C312.91,154.00 310.60,152.68 308.41,151.07 C306.23,149.46 303.10,147.83 301.47,147.43 C299.84,147.04 297.25,146.09 295.72,145.32 C291.84,143.36 277.03,139.78 275.40,140.40 C274.66,140.68 272.81,140.26 271.28,139.46 C269.75,138.67 267.35,138.01 265.95,138.01 C264.55,138.00 262.84,137.44 262.15,136.75 C260.46,135.06 249.82,135.43 238.50,137.56 C233.55,138.50 226.97,139.55 223.87,139.91 C220.78,140.26 217.56,141.12 216.71,141.83 C215.86,142.53 213.90,143.32 212.34,143.59 C208.39,144.27 200.80,147.10 199.00,148.55 C198.18,149.22 195.48,150.78 193.00,152.03 C188.84,154.13 182.69,158.84 170.69,169.15 C166.11,173.08 165.90,173.47 166.52,177.11 L 167.17 180.95 L 163.17 181.59 C159.94,182.10 158.58,183.06 156.06,186.57 C151.56,192.84 147.00,201.84 147.00,204.47 C147.00,205.71 146.10,207.87 145.00,209.27 C143.90,210.67 143.00,212.55 143.00,213.46 C143.00,214.36 142.40,216.31 141.66,217.80 C139.64,221.87 137.96,241.10 138.54,253.50 C138.83,259.55 139.16,267.20 139.28,270.50 C139.42,274.30 140.14,277.40 141.25,278.97 C142.21,280.33 143.00,282.73 143.00,284.30 C143.00,287.63 148.96,300.50 153.52,307.01 C155.25,309.48 156.86,312.04 157.08,312.68 C157.72,314.47 168.18,327.98 171.00,330.65 C178.73,337.98 185.81,344.00 186.70,344.00 C187.27,344.00 189.42,345.35 191.50,347.00 C193.58,348.65 195.74,350.00 196.31,350.00 C196.88,350.00 198.05,350.64 198.92,351.43 C201.05,353.35 215.12,358.00 218.80,358.00 C220.43,358.00 222.29,358.64 222.94,359.42 C223.59,360.21 225.17,360.65 226.46,360.42 C227.76,360.19 229.87,360.42 231.16,360.93 ZM 279.35 449.06 C275.27,450.35 243.56,451.03 229.97,450.12 C222.56,449.63 218.71,448.91 217.00,447.71 C215.46,446.63 212.64,446.00 209.38,446.00 C205.96,446.00 202.38,445.15 198.85,443.51 C195.91,442.14 192.29,441.02 190.81,441.01 C189.33,441.00 187.85,440.56 187.52,440.03 C187.19,439.50 183.68,438.10 179.71,436.92 C175.74,435.74 169.55,433.03 165.94,430.89 C162.33,428.75 158.69,427.00 157.84,427.00 C156.99,427.00 154.47,425.68 152.24,424.06 C150.01,422.45 145.56,419.78 142.34,418.15 C139.13,416.51 134.49,413.11 132.04,410.59 C129.59,408.06 126.97,406.00 126.23,406.00 C125.48,406.00 123.73,404.65 122.35,403.00 C120.96,401.35 119.20,400.00 118.44,400.00 C117.67,400.00 116.37,398.68 115.54,397.07 C114.70,395.46 113.23,393.88 112.26,393.57 C111.29,393.26 108.25,390.43 105.50,387.30 C102.75,384.17 99.04,380.20 97.25,378.48 C95.46,376.76 94.00,375.00 94.00,374.56 C94.00,374.12 92.76,372.30 91.25,370.50 C85.98,364.25 76.12,347.40 71.64,337.00 C63.97,319.16 61.58,312.64 59.02,302.60 C55.98,290.64 55.96,288.71 58.83,287.38 C59.75,286.95 70.40,286.45 82.50,286.27 C107.91,285.89 108.67,286.07 110.46,293.00 C111.10,295.48 112.84,300.02 114.31,303.10 C115.79,306.17 117.00,309.10 117.00,309.60 C117.00,310.09 119.25,314.24 122.00,318.81 C124.75,323.38 127.00,327.36 127.00,327.65 C127.00,327.94 128.57,330.02 130.50,332.27 C132.43,334.52 134.00,336.92 134.00,337.61 C134.00,338.30 136.48,341.42 139.50,344.54 C142.52,347.67 145.00,350.81 145.00,351.52 C145.00,352.83 152.12,359.09 157.31,362.36 C158.85,363.33 161.68,365.86 163.60,367.98 C165.82,370.43 171.14,373.90 178.29,377.56 C184.46,380.71 192.29,384.76 195.70,386.57 C199.12,388.38 204.07,390.18 206.70,390.56 C209.34,390.95 213.07,391.86 215.00,392.59 C216.93,393.32 222.55,394.39 227.50,394.96 C232.45,395.53 240.27,396.49 244.88,397.09 C250.91,397.87 254.46,397.87 257.57,397.09 C259.94,396.49 265.10,396.00 269.02,396.00 C273.85,396.00 278.49,395.23 283.33,393.63 C287.27,392.33 292.06,391.19 293.96,391.10 C295.86,391.01 298.11,390.33 298.96,389.59 C299.81,388.85 302.88,388.03 305.78,387.77 C309.61,387.42 312.50,386.33 316.28,383.82 C326.87,376.78 330.56,374.49 333.05,373.39 C334.45,372.77 338.45,369.51 341.94,366.13 C345.43,362.76 348.88,360.00 349.61,360.00 C350.34,360.00 351.36,359.19 351.89,358.21 C352.41,357.23 353.99,355.81 355.38,355.06 C356.78,354.32 358.82,351.78 359.93,349.43 C361.03,347.08 362.83,344.87 363.92,344.53 C365.01,344.18 366.21,342.91 366.58,341.70 C366.96,340.49 368.54,337.88 370.10,335.89 C371.66,333.91 373.38,331.13 373.92,329.72 C374.50,328.19 375.82,327.02 377.19,326.83 C378.50,326.64 379.64,325.67 379.85,324.57 C380.05,323.50 382.23,319.00 384.68,314.57 C387.14,310.13 389.41,305.15 389.73,303.50 C390.06,301.85 390.95,299.52 391.73,298.32 C392.50,297.12 393.29,294.47 393.48,292.43 C393.67,290.39 394.43,288.33 395.16,287.85 C396.54,286.94 440.73,286.83 444.76,287.72 C448.05,288.45 448.43,291.87 445.96,298.58 C444.76,301.84 443.42,306.75 442.98,309.50 C442.22,314.28 439.56,321.45 436.45,327.15 C435.65,328.61 435.00,330.46 435.00,331.26 C435.00,332.05 433.80,334.91 432.33,337.60 C430.86,340.30 427.92,345.88 425.81,350.00 C421.40,358.58 414.44,368.89 409.60,374.00 C407.77,375.92 405.26,379.37 404.01,381.65 C402.76,383.93 400.56,386.41 399.12,387.15 C395.98,388.77 389.16,395.42 386.71,399.25 C385.74,400.76 384.30,402.00 383.50,402.00 C382.70,402.00 381.31,403.12 380.41,404.50 C379.51,405.88 378.36,407.00 377.85,407.00 C377.35,407.00 375.31,408.63 373.32,410.61 C371.34,412.60 368.31,414.88 366.61,415.68 C360.38,418.60 357.46,420.30 355.34,422.21 C354.16,423.29 351.68,424.72 349.84,425.39 C344.58,427.31 321.09,439.04 320.46,440.07 C320.14,440.58 317.98,441.00 315.66,441.00 C313.34,441.00 310.56,441.62 309.47,442.38 C308.39,443.13 305.70,443.97 303.50,444.23 C298.02,444.88 283.19,447.85 279.35,449.06 ZM 107.51 211.35 C106.27,212.58 101.88,212.86 82.05,212.93 L 58.08 213.01 L 56.86 208.94 C55.92,205.80 55.91,204.13 56.82,201.61 C57.47,199.82 58.00,197.58 58.00,196.64 C58.00,195.69 59.58,192.00 61.50,188.43 C63.42,184.87 65.00,180.80 65.00,179.40 C65.00,177.99 67.03,172.77 69.50,167.78 C71.97,162.80 74.00,158.29 74.00,157.75 C74.00,157.21 75.52,154.68 77.39,152.13 C79.25,149.59 82.19,144.80 83.91,141.50 C85.73,138.02 88.48,134.52 90.47,133.16 C92.94,131.47 93.97,129.95 94.19,127.66 C94.38,125.76 95.06,124.50 95.90,124.50 C98.07,124.50 98.02,127.60 95.82,129.96 C93.84,132.09 93.84,132.10 96.42,137.03 C97.84,139.74 99.00,143.48 99.00,145.33 C99.00,149.15 100.80,155.00 101.98,155.00 C102.41,155.00 103.32,156.35 104.00,158.00 C105.13,160.72 106.11,161.45 108.23,161.12 C108.64,161.06 110.89,161.66 113.23,162.46 C117.78,164.00 118.90,163.96 123.32,162.15 C124.86,161.52 126.51,161.00 126.98,161.00 C127.45,161.00 129.67,159.24 131.92,157.08 C136.23,152.94 136.51,151.75 136.04,139.50 C135.81,133.45 135.29,132.47 130.72,129.36 C124.51,125.15 119.18,123.90 113.84,125.42 C111.75,126.01 110.67,125.67 108.84,123.84 C107.55,122.55 106.05,121.66 105.50,121.85 C94.97,125.51 98.31,118.41 113.06,105.79 C118.06,101.51 122.46,98.00 122.83,98.00 C123.20,98.00 124.38,96.67 125.47,95.06 C126.55,93.45 129.25,91.11 131.47,89.87 C133.68,88.63 137.60,86.02 140.17,84.06 C142.74,82.10 146.76,79.38 149.10,78.00 C151.44,76.62 155.57,74.04 158.28,72.25 C160.99,70.46 164.06,69.00 165.12,69.00 C166.17,69.00 169.42,67.65 172.35,66.00 C175.27,64.35 178.60,63.00 179.74,63.00 C180.88,63.00 184.82,61.65 188.50,60.00 C192.18,58.35 196.26,57.00 197.56,57.00 C198.87,57.00 202.48,55.88 205.58,54.51 C213.25,51.11 226.65,49.73 253.50,49.57 C268.80,49.48 276.72,49.83 279.50,50.71 C281.70,51.40 285.18,51.98 287.22,51.99 C289.27,51.99 292.87,52.86 295.22,53.91 C297.58,54.96 304.23,57.02 310.00,58.49 C315.77,59.97 324.10,62.94 328.50,65.10 C332.90,67.26 337.30,69.03 338.28,69.02 C340.58,69.00 361.03,80.91 361.70,82.67 C361.98,83.40 364.37,85.08 366.99,86.40 C373.02,89.43 388.49,101.79 389.86,104.67 C390.42,105.86 392.13,107.43 393.65,108.17 C395.21,108.92 397.30,111.35 398.45,113.74 C399.77,116.48 401.46,118.31 403.24,118.93 C404.76,119.46 406.00,120.57 406.00,121.39 C406.00,122.21 406.82,123.47 407.82,124.19 C408.82,124.91 410.94,127.90 412.52,130.83 C414.11,133.77 416.67,137.23 418.22,138.53 C419.76,139.83 421.86,142.83 422.88,145.21 C423.89,147.59 425.46,150.14 426.36,150.89 C427.26,151.63 428.00,152.98 428.00,153.88 C428.00,154.78 428.90,156.08 430.00,156.77 C431.15,157.49 432.00,159.10 432.00,160.56 C432.00,161.96 432.88,164.77 433.96,166.80 C436.16,170.97 441.14,181.95 442.89,186.51 C443.52,188.17 444.46,191.77 444.96,194.51 C445.47,197.26 446.44,201.39 447.13,203.70 C448.17,207.17 448.15,208.36 447.01,210.49 L 445.62 213.07 L 423.56 212.72 C398.55,212.31 394.97,211.71 393.55,207.65 C392.33,204.20 394.03,202.79 398.82,203.28 C401.52,203.55 402.51,203.09 404.14,200.80 C405.85,198.40 405.99,197.49 405.05,194.64 C403.65,190.40 404.52,188.14 407.86,187.38 C409.31,187.05 412.73,185.71 415.45,184.39 C418.17,183.08 420.91,182.00 421.54,182.00 C422.17,182.00 423.42,181.19 424.32,180.20 C425.65,178.73 425.76,177.72 424.93,174.71 C424.37,172.68 423.04,170.56 421.98,169.99 C419.53,168.68 415.04,169.72 412.71,172.14 C411.73,173.16 409.93,174.02 408.71,174.04 C407.49,174.05 405.42,174.67 404.10,175.40 C402.78,176.13 400.86,176.52 399.85,176.25 C398.83,175.98 396.99,176.41 395.75,177.19 C394.51,177.97 392.71,178.44 391.75,178.23 C389.42,177.73 389.51,174.94 391.88,174.32 C392.91,174.05 394.25,172.74 394.86,171.42 C395.46,170.09 396.53,169.00 397.23,168.99 C397.93,168.98 400.44,167.44 402.80,165.56 C406.39,162.71 407.67,162.23 410.54,162.70 C415.36,163.48 417.22,161.71 416.40,157.11 C416.04,155.13 414.57,151.98 413.13,150.13 C411.68,148.28 409.79,145.58 408.92,144.13 C406.28,139.72 401.45,139.95 393.98,144.87 C388.76,148.31 384.55,149.25 384.47,147.00 C384.38,144.63 387.13,140.90 389.67,139.93 C392.10,139.01 392.33,138.04 392.00,130.04 C391.80,125.02 387.89,116.38 384.65,113.77 C381.68,111.38 375.77,111.49 373.52,113.97 C372.54,115.06 370.89,116.22 369.85,116.55 C368.81,116.88 367.32,118.69 366.53,120.58 C365.74,122.47 364.05,124.41 362.77,124.90 C361.49,125.38 358.97,127.16 357.16,128.85 C354.49,131.34 354.07,132.26 354.89,133.79 C355.44,134.83 355.66,136.58 355.38,137.67 C354.58,140.70 358.97,145.18 366.44,148.97 C372.59,152.09 373.12,152.20 374.83,150.65 C377.02,148.67 382.00,148.44 382.00,150.32 C382.00,151.04 380.42,153.03 378.50,154.73 C374.70,158.09 373.88,162.09 376.41,164.92 C378.71,167.49 378.80,170.50 376.58,170.50 C375.33,170.50 374.33,169.46 373.71,167.50 C373.18,165.85 371.68,163.35 370.38,161.95 C369.07,160.54 368.00,158.91 368.00,158.33 C368.00,157.06 357.01,145.93 350.89,141.00 C348.50,139.07 343.99,134.91 340.87,131.75 C337.75,128.59 334.46,126.00 333.56,126.00 C330.96,126.00 324.62,122.36 323.24,120.08 C322.55,118.94 321.19,118.00 320.21,118.00 C319.24,118.00 315.31,116.66 311.47,115.03 C307.64,113.39 303.77,112.04 302.88,112.03 C302.00,112.01 300.20,111.16 298.88,110.14 C297.53,109.08 293.91,107.98 290.50,107.58 C287.20,107.20 282.02,106.16 279.00,105.26 C275.79,104.31 268.92,103.52 262.50,103.35 C256.45,103.20 250.15,102.96 248.50,102.82 C243.79,102.42 229.66,103.88 226.08,105.12 C223.81,105.91 222.17,105.94 220.57,105.21 C218.72,104.37 217.97,104.55 216.58,106.18 C215.30,107.68 214.19,108.01 212.18,107.51 C210.71,107.14 209.38,106.71 209.23,106.56 C208.50,105.84 210.34,103.15 212.30,102.08 C213.51,101.42 216.02,98.88 217.87,96.44 C221.26,91.97 222.94,90.94 223.08,93.25 C223.20,95.33 223.83,98.16 224.25,98.58 C224.47,98.80 225.96,99.23 227.57,99.54 C229.79,99.96 231.20,99.48 233.37,97.57 C237.53,93.93 239.31,93.67 243.87,96.05 C247.42,97.90 248.40,98.02 251.53,96.99 C254.00,96.17 255.95,96.11 257.81,96.79 C259.29,97.33 262.52,98.32 265.00,99.00 C267.48,99.68 270.62,100.63 272.00,101.12 C273.38,101.61 276.52,101.66 279.00,101.23 L 283.50 100.45 L 283.80 94.84 L 284.09 89.23 L 278.99 87.40 C272.34,85.01 271.81,84.25 273.44,79.45 C274.18,77.28 274.99,73.37 275.24,70.76 C275.65,66.55 275.35,65.63 272.59,62.53 L 269.48 59.03 L 266.24 61.00 C264.13,62.28 263.00,63.76 262.99,65.24 C262.98,66.48 262.31,69.71 261.49,72.41 C260.67,75.11 260.00,79.45 260.00,82.05 C260.00,85.17 259.37,87.56 258.14,89.07 L 256.29 91.37 L 254.66 88.89 C253.77,87.52 250.66,81.75 247.77,76.06 C244.84,70.31 241.29,64.81 239.77,63.68 C237.13,61.70 236.99,61.70 235.02,63.48 C233.91,64.49 233.00,65.73 233.00,66.25 C233.00,66.76 232.10,68.33 231.00,69.73 C229.90,71.13 229.00,73.50 229.00,75.01 C229.00,77.88 224.75,88.42 223.22,89.37 C222.73,89.67 221.81,87.69 221.18,84.97 C219.83,79.10 216.16,73.24 211.86,70.05 C209.04,67.97 208.03,67.81 201.19,68.36 C195.54,68.82 192.70,69.59 189.91,71.44 C186.37,73.78 186.20,74.14 186.68,78.21 C186.96,80.57 188.00,84.75 189.01,87.50 C191.88,95.38 193.37,100.96 192.77,101.56 C192.10,102.23 188.35,96.10 183.43,86.28 C180.21,79.87 179.42,78.98 176.41,78.42 C174.54,78.07 171.86,78.07 170.45,78.42 C168.03,79.03 167.91,79.37 168.20,84.78 C168.22,85.22 168.24,85.62 168.27,86.00 C168.39,88.05 168.47,89.22 167.91,89.81 C167.19,90.58 165.37,90.32 161.14,89.72 C160.56,89.63 159.93,89.55 159.25,89.45 C155.56,88.94 154.00,89.06 154.00,89.86 C154.00,90.49 153.32,91.00 152.50,91.00 C150.20,91.00 150.65,96.20 153.28,100.11 C157.24,105.98 162.10,116.03 161.48,117.03 C161.15,117.56 159.42,118.00 157.64,118.00 C155.86,118.00 153.97,118.40 153.45,118.89 C150.96,121.22 148.13,121.06 145.72,118.45 C144.38,117.01 142.21,115.29 140.89,114.64 C139.58,113.98 137.59,111.69 136.47,109.55 C135.36,107.40 133.89,105.46 133.21,105.24 C132.54,105.01 129.96,105.81 127.49,107.00 C122.63,109.36 121.60,112.11 124.84,114.13 C126.02,114.87 126.52,116.08 126.23,117.56 C125.89,119.36 126.65,120.38 129.83,122.39 C132.04,123.79 134.68,126.09 135.68,127.50 C136.68,128.91 138.71,131.65 140.19,133.59 C141.66,135.53 143.02,137.57 143.21,138.12 C143.43,138.78 144.38,138.76 146.02,138.05 C152.44,135.27 162.25,128.21 161.46,126.94 C161.23,126.56 162.13,125.07 163.47,123.63 C165.37,121.58 166.85,121.00 170.20,121.00 L 174.50 120.99 L 174.68 114.90 C174.78,111.55 175.08,108.59 175.36,108.31 C175.63,108.03 178.03,108.33 180.68,108.97 C186.64,110.41 191.19,110.32 192.16,108.74 C193.05,107.31 208.00,106.72 208.00,108.12 C208.00,108.64 207.21,109.31 206.25,109.61 C202.34,110.82 192.83,115.50 191.83,116.71 C191.24,117.42 189.97,118.00 189.00,118.00 C188.03,118.00 186.68,118.68 186.00,119.50 C185.24,120.41 183.05,121.00 180.43,121.00 C176.70,121.00 175.93,121.38 174.80,123.75 C173.99,125.44 172.52,126.64 170.99,126.85 C169.62,127.04 166.36,129.39 163.75,132.07 C161.14,134.74 157.94,137.51 156.63,138.22 C152.76,140.31 143.00,149.73 143.00,151.37 C143.00,152.20 142.20,153.47 141.21,154.19 C137.79,156.70 125.00,172.89 125.00,174.72 C125.00,175.74 123.43,179.01 121.51,181.99 C119.59,184.97 117.73,188.90 117.39,190.72 C117.05,192.53 115.92,195.69 114.89,197.72 C113.85,199.76 113.00,202.22 113.00,203.20 C113.00,204.18 112.10,205.55 111.00,206.23 C109.90,206.92 109.00,208.02 109.00,208.67 C109.00,209.32 108.33,210.53 107.51,211.35 ZM 102.00 204.28 C106.32,205.51 110.65,199.88 108.29,196.10 C107.44,194.73 107.50,193.72 108.54,191.90 C109.90,189.53 110.28,188.72 112.07,184.23 C112.57,182.98 114.04,181.55 115.34,181.06 C117.05,180.41 117.88,179.12 118.31,176.45 C118.84,173.23 118.50,172.29 115.74,169.37 C113.99,167.52 111.60,166.00 110.43,166.00 C109.27,166.00 107.50,165.10 106.50,164.00 C105.50,162.90 103.69,162.00 102.47,162.00 C101.25,162.00 98.34,161.32 96.00,160.50 C93.66,159.68 90.40,159.00 88.74,159.00 C85.85,159.00 85.76,159.14 86.24,162.75 C86.52,164.81 88.16,168.88 89.87,171.79 C94.76,180.07 94.12,181.24 83.44,183.48 C75.66,185.11 72.43,187.58 73.34,191.21 C73.93,193.55 79.42,197.00 82.56,197.00 C83.84,197.00 91.30,199.80 98.50,202.97 C99.60,203.46 101.18,204.05 102.00,204.28 ZM 305.65 108.17 C307.80,110.55 309.12,110.48 312.51,107.81 C314.61,106.16 317.17,105.48 322.94,105.06 C334.14,104.24 337.15,101.86 338.52,92.74 C339.21,88.10 337.77,82.00 335.98,82.00 C335.56,82.00 333.74,80.63 331.95,78.95 C327.84,75.11 326.40,74.42 321.80,74.11 C319.00,73.92 317.67,74.39 316.30,76.07 C315.31,77.29 313.71,79.00 312.75,79.87 C311.74,80.78 311.00,82.87 311.00,84.83 C311.00,86.92 310.19,89.06 308.89,90.41 C304.47,95.01 302.67,104.87 305.65,108.17 ZM 343.53 130.69 C344.87,132.73 345.65,133.02 348.32,132.47 C352.10,131.69 353.81,129.76 354.43,125.58 C354.68,123.88 355.41,118.90 356.05,114.50 C356.68,110.10 357.54,106.05 357.96,105.50 C359.61,103.30 359.82,99.54 358.42,96.85 C356.17,92.50 352.12,92.99 344.79,98.50 C341.50,100.97 338.23,103.00 337.52,103.00 C336.82,103.00 335.68,103.68 335.00,104.50 C334.32,105.32 332.99,106.00 332.05,106.00 C329.66,106.00 325.62,110.56 326.34,112.45 C326.67,113.30 326.54,114.00 326.06,114.00 C325.58,114.00 325.41,114.84 325.68,115.88 C326.22,117.94 328.46,119.21 334.50,120.89 C339.79,122.35 340.96,123.20 341.49,125.95 C341.73,127.21 342.65,129.35 343.53,130.69 ZM 33.44 284.17 C33.83,290.05 33.70,294.07 33.11,294.43 C31.42,295.48 30.83,293.17 29.85,281.77 C29.33,275.67 28.47,269.87 27.94,268.89 C27.42,267.91 26.96,260.89 26.93,253.30 C26.90,245.71 26.87,238.38 26.87,237.00 C26.86,235.62 27.33,231.35 27.92,227.50 C28.52,223.65 29.38,217.01 29.85,212.74 C30.38,207.96 31.34,204.28 32.35,203.16 C33.26,202.16 34.00,200.00 34.00,198.35 C34.00,196.70 34.74,193.19 35.64,190.55 C36.88,186.89 37.48,186.11 38.14,187.29 C38.65,188.20 38.59,189.94 38.01,191.49 C37.45,192.94 37.00,195.23 37.00,196.57 C37.00,197.90 36.60,199.00 36.11,199.00 C35.62,199.00 35.43,200.56 35.69,202.47 C35.97,204.55 35.32,208.27 34.07,211.79 C32.22,217.01 31.94,220.58 31.53,244.45 C31.27,259.18 31.45,271.98 31.93,272.87 C32.41,273.77 33.09,278.85 33.44,284.17 ZM 469.46 307.88 C468.51,311.24 467.35,314.00 466.87,314.00 C465.47,314.00 465.90,306.87 467.60,302.00 C468.46,299.52 469.36,295.52 469.58,293.10 C469.81,290.69 470.40,288.21 470.89,287.60 C471.83,286.45 473.14,263.61 473.25,246.50 C473.32,235.66 471.71,217.90 470.07,211.50 C467.94,203.16 469.70,197.95 472.02,205.75 C475.07,216.02 475.93,223.20 476.14,239.81 C476.27,249.54 476.62,262.11 476.93,267.75 C477.25,273.39 477.23,278.00 476.91,278.00 C476.04,278.00 474.00,285.30 474.00,288.43 C474.00,289.92 473.50,292.07 472.89,293.21 C472.27,294.36 471.64,296.74 471.47,298.52 C471.31,300.30 470.40,304.51 469.46,307.88 ZM 277.50 474.19 C261.42,475.84 239.73,476.05 236.00,474.59 C230.68,472.52 233.38,472.08 254.50,471.55 C264.95,471.29 276.88,470.61 281.00,470.03 C285.12,469.45 290.52,468.83 293.00,468.64 C295.48,468.46 299.63,467.33 302.23,466.14 C304.84,464.94 308.21,464.05 309.73,464.15 C311.25,464.25 314.08,463.98 316.00,463.55 C321.04,462.42 318.95,464.00 312.77,465.99 C300.04,470.08 286.20,473.30 277.50,474.19 ZM 288.43 29.11 C287.80,30.13 286.04,30.08 277.00,28.81 C273.42,28.31 266.00,27.77 260.50,27.61 C255.00,27.46 248.93,27.22 247.00,27.08 L 243.50 26.83 L 247.55 24.96 C251.02,23.37 252.54,23.23 258.05,24.05 C261.60,24.58 269.45,25.29 275.50,25.64 C286.04,26.24 289.61,27.20 288.43,29.11 ZM 122.90 146.85 C121.66,150.41 119.55,150.81 114.25,148.51 C111.93,147.50 111.00,146.44 111.02,144.80 C111.04,141.32 112.33,139.94 116.44,139.01 C119.51,138.32 120.51,138.51 122.09,140.09 C124.32,142.32 124.36,142.67 122.90,146.85 ZM 326.02 37.52 C326.72,38.36 327.11,39.20 326.89,39.38 C326.08,40.05 310.49,36.89 307.65,35.48 C306.02,34.66 303.50,34.00 302.04,34.00 C300.58,34.00 298.51,33.36 297.44,32.57 C295.62,31.23 295.61,31.10 297.27,30.46 C298.24,30.08 300.26,30.08 301.77,30.45 C303.27,30.82 307.38,31.53 310.89,32.04 C314.41,32.54 318.33,33.64 319.61,34.48 C320.88,35.32 322.57,36.00 323.34,36.00 C324.12,36.00 325.32,36.69 326.02,37.52 ZM 368.56 442.52 C367.49,443.33 366.04,444.00 365.34,444.00 C363.17,444.00 364.99,441.25 367.97,440.01 C369.53,439.37 371.83,437.75 373.08,436.42 C374.33,435.09 376.06,434.00 376.92,434.00 C377.79,433.99 379.94,432.64 381.70,431.00 C383.45,429.35 385.58,428.00 386.43,428.00 C387.27,428.00 388.25,426.86 388.60,425.47 C389.58,421.54 395.00,419.28 395.00,422.80 C395.00,425.08 393.11,427.00 390.87,427.00 C389.92,427.00 388.31,428.06 387.28,429.37 C386.26,430.67 384.42,432.05 383.20,432.44 C381.98,432.82 380.30,434.44 379.48,436.03 C378.48,437.98 376.76,439.27 374.24,439.98 C372.18,440.56 369.63,441.70 368.56,442.52 ZM 234.29 28.11 C215.03,30.57 210.97,30.38 215.98,27.24 C219.61,24.98 243.85,24.48 241.61,26.72 C241.32,27.01 238.03,27.64 234.29,28.11 ZM 333.56 459.99 C332.50,460.00 330.70,460.82 329.56,461.83 C327.66,463.51 324.00,463.74 324.00,462.18 C324.01,461.27 334.16,456.00 335.90,456.00 C336.65,456.00 338.79,455.06 340.66,453.90 C344.02,451.83 347.77,451.95 346.44,454.10 C345.51,455.61 335.96,459.98 333.56,459.99 ZM 88.50 100.99 C87.73,104.51 84.90,106.50 83.15,104.75 C81.17,102.77 81.85,101.21 86.73,96.53 C91.74,91.74 93.43,91.06 94.36,93.49 C94.73,94.46 93.92,95.51 92.05,96.47 C90.21,97.43 88.93,99.06 88.50,100.99 ZM 397.00 79.18 C397.00,79.63 396.66,80.00 396.24,80.00 C394.93,80.00 387.88,74.69 383.62,70.50 C379.87,66.81 379.73,66.48 381.75,66.18 C382.96,66.01 384.68,66.46 385.58,67.18 C388.80,69.76 397.00,78.38 397.00,79.18 ZM 118.03 74.25 C114.97,77.58 110.91,78.06 111.71,74.99 C112.38,72.45 121.61,64.64 122.97,65.48 C124.11,66.18 122.01,69.91 118.03,74.25 ZM 228.52 471.44 C230.35,472.83 230.09,472.94 224.92,472.97 C221.85,472.99 219.01,472.68 218.62,472.28 C218.22,471.89 214.76,471.28 210.93,470.93 C207.09,470.58 203.67,470.00 203.31,469.65 C201.68,468.01 204.59,467.79 211.24,469.03 C215.24,469.77 220.31,470.29 222.52,470.17 C224.86,470.04 227.38,470.58 228.52,471.44 ZM 201.59 33.69 C199.34,33.79 195.48,34.17 193.00,34.54 C189.65,35.03 188.78,34.91 189.58,34.07 C190.18,33.44 193.02,32.56 195.89,32.11 C198.77,31.65 201.63,30.77 202.26,30.14 C203.60,28.80 209.00,28.59 209.00,29.88 C209.00,31.72 205.53,33.51 201.59,33.69 ZM 388.59 183.50 C387.36,188.41 382.00,185.95 382.00,180.47 C382.00,177.55 382.20,177.38 385.08,177.80 C388.55,178.31 389.50,179.86 388.59,183.50 ZM 450.00 144.89 C450.00,148.09 448.53,147.42 446.41,143.25 C445.36,141.19 443.71,138.91 442.75,138.19 C440.70,136.66 440.40,133.00 442.33,133.00 C444.08,133.00 450.00,142.18 450.00,144.89 ZM 141.78 57.37 C136.16,61.18 134.00,61.47 134.00,58.41 C134.00,56.43 145.10,51.69 146.43,53.10 C147.20,53.92 147.16,54.38 146.28,54.70 C145.61,54.94 143.59,56.15 141.78,57.37 ZM 58.88 140.77 C56.36,145.87 54.00,148.11 54.00,145.41 C54.00,142.28 57.20,135.00 58.58,135.00 C60.88,135.00 60.96,136.57 58.88,140.77 ZM 154.14 449.97 C156.44,451.88 156.45,451.93 154.40,451.97 C153.25,451.99 151.27,451.10 150.00,450.00 C148.73,448.90 146.73,448.00 145.55,448.00 C143.40,448.00 141.00,446.31 141.00,444.80 C141.00,443.35 143.68,443.96 146.27,446.00 C147.67,447.10 149.48,448.00 150.30,448.00 C151.11,448.00 152.84,448.89 154.14,449.97 ZM 129.52 436.03 C131.27,437.95 131.23,438.00 128.13,438.00 C125.71,438.00 124.74,437.44 124.05,435.64 C123.56,434.34 122.22,433.03 121.08,432.73 C119.93,432.43 119.00,431.70 119.00,431.09 C119.00,429.59 120.58,429.72 122.23,431.37 C122.98,432.12 124.53,433.03 125.66,433.39 C126.80,433.76 128.54,434.94 129.52,436.03 ZM 38.00 307.32 C38.00,308.24 37.57,309.00 37.04,309.00 C34.99,309.00 31.69,300.11 32.97,298.04 C33.81,296.68 38.00,304.41 38.00,307.32 ZM 160.75 48.06 C158.39,50.03 153.00,50.70 153.00,49.03 C153.00,47.72 158.38,45.00 160.95,45.00 C163.59,45.00 163.54,45.73 160.75,48.06 ZM 422.79 103.82 C422.03,107.75 417.76,104.91 416.43,99.58 L 415.70 96.67 L 419.39 99.49 C421.43,101.04 422.96,102.99 422.79,103.82 ZM 435.98 379.28 C433.22,381.65 432.91,381.45 434.30,378.18 C436.14,373.86 441.93,367.12 441.97,369.25 C441.98,370.21 441.58,371.00 441.08,371.00 C440.57,371.00 439.67,372.48 439.07,374.28 C438.48,376.09 437.09,378.34 435.98,379.28 ZM 90.00 402.33 C90.00,404.99 86.62,404.25 85.25,401.29 C83.66,397.86 83.68,397.00 85.35,397.00 C87.15,397.00 90.00,400.26 90.00,402.33 ZM 98.96 412.25 C99.02,413.40 97.75,413.07 95.00,411.21 C92.07,409.25 91.04,407.96 91.02,406.28 C90.98,403.62 98.83,409.51 98.96,412.25 ZM 41.73 176.73 C40.67,178.53 39.44,180.00 38.99,180.00 C37.82,180.00 41.50,170.35 43.39,168.47 C44.83,167.02 44.92,167.17 44.31,170.18 C43.95,171.99 42.79,174.94 41.73,176.73 ZM 460.00 163.21 C460.00,164.06 459.36,165.28 458.58,165.93 C457.45,166.87 457.02,166.65 456.43,164.80 C455.32,161.36 455.08,158.00 455.93,158.00 C457.21,158.00 460.00,161.57 460.00,163.21 ZM 377.96 134.07 C376.82,136.20 372.98,136.73 373.03,134.75 C373.08,132.74 375.58,130.00 377.36,130.00 C379.25,130.00 379.44,131.31 377.96,134.07 ZM 176.25 41.61 C174.22,43.15 169.00,43.46 169.00,42.04 C169.00,40.63 172.46,39.00 175.43,39.00 C178.44,39.00 178.68,39.76 176.25,41.61 ZM 357.00 449.01 C356.03,450.41 352.17,451.08 351.48,449.97 C351.46,449.93 351.43,449.88 351.40,449.84 C351.18,449.49 351.03,449.24 351.05,449.02 C351.12,448.47 352.30,448.06 356.31,446.57 C361.42,444.68 363.75,445.01 359.84,447.07 C358.55,447.75 357.27,448.62 357.00,449.01 ZM 103.42 86.39 C100.69,87.44 100.00,87.08 100.00,84.61 C100.00,82.23 102.35,80.48 104.09,81.56 C105.58,82.47 105.12,85.74 103.42,86.39 ZM 207.06 85.12 C207.94,86.76 207.89,87.54 206.80,88.62 C205.03,90.40 203.00,88.63 203.00,85.30 C203.00,82.39 205.54,82.27 207.06,85.12 ZM 42.41 322.37 C42.07,323.27 41.46,324.00 41.05,324.00 C39.71,324.00 37.93,318.79 38.58,316.75 C39.18,314.87 39.36,314.95 41.13,317.73 C42.18,319.39 42.75,321.48 42.41,322.37 ZM 167.42 456.08 C169.32,457.87 169.31,457.90 167.11,457.73 C163.91,457.49 159.00,455.28 159.00,454.07 C159.00,452.50 165.22,453.98 167.42,456.08 ZM 449.81 358.24 C449.61,360.30 448.89,361.60 447.84,361.80 C445.32,362.28 444.64,360.19 446.44,357.46 C448.68,354.04 450.19,354.39 449.81,358.24 ZM 196.00 465.12 C196.00,466.56 189.54,466.12 187.44,464.53 C185.59,463.14 185.65,463.06 188.50,463.05 C192.43,463.02 196.00,464.01 196.00,465.12 ZM 353.32 50.34 C352.27,51.40 349.50,51.10 348.20,49.80 C346.36,47.96 346.76,47.00 349.38,47.00 C351.86,47.00 354.46,49.20 353.32,50.34 ZM 389.92 190.35 C390.61,191.64 391.01,193.78 390.81,195.10 C390.45,197.43 390.39,197.40 388.72,194.30 C386.88,190.88 386.47,188.00 387.83,188.00 C388.29,188.00 389.23,189.06 389.92,190.35 ZM 464.47 324.05 C462.63,327.62 462.00,327.77 462.00,324.61 C462.00,321.66 465.91,316.42 465.97,319.30 C465.99,320.29 465.31,322.43 464.47,324.05 ZM 113.00 424.07 C113.00,425.18 110.94,425.27 109.43,424.23 C107.59,422.98 106.91,420.00 108.46,420.00 C110.04,420.00 113.00,422.66 113.00,424.07 ZM 361.63 53.21 C362.47,54.57 360.83,55.73 358.75,55.25 C357.79,55.03 357.00,54.03 357.00,53.02 C357.00,51.67 357.54,51.33 359.02,51.71 C360.12,52.00 361.30,52.68 361.63,53.21 ZM 81.56 392.18 C81.90,393.27 81.95,394.38 81.67,394.66 C81.05,395.29 77.00,391.34 77.00,390.09 C77.00,388.40 80.93,390.20 81.56,392.18 ZM 70.43 375.67 C70.78,376.58 70.69,377.71 70.23,378.17 C69.25,379.15 67.00,377.16 67.00,375.30 C67.00,373.42 69.67,373.70 70.43,375.67 ZM 65.83 129.16 C65.65,130.44 64.71,131.63 63.75,131.81 C61.27,132.29 61.53,129.32 64.08,127.96 C65.93,126.97 66.12,127.10 65.83,129.16 ZM 425.42 392.36 C424.62,394.43 422.00,394.52 422.00,392.47 C422.00,390.96 424.64,389.30 425.57,390.23 C425.83,390.50 425.76,391.45 425.42,392.36 ZM 410.00 409.00 C409.41,410.10 408.50,411.00 407.96,411.00 C407.43,411.00 407.00,410.10 407.00,409.00 C407.00,407.66 407.67,407.00 409.04,407.00 C410.76,407.00 410.91,407.30 410.00,409.00 ZM 429.00 112.12 C429.00,112.61 428.31,113.00 427.47,113.00 C425.86,113.00 424.33,110.34 425.35,109.31 C426.06,108.60 429.00,110.86 429.00,112.12 ZM 401.93 417.59 C400.42,419.41 399.00,419.40 399.00,417.56 C399.00,415.77 400.65,414.67 402.05,415.53 C402.77,415.97 402.73,416.62 401.93,417.59 ZM 47.98 161.81 C47.98,162.74 47.53,164.18 47.00,165.00 C46.28,166.11 46.03,165.52 46.02,162.69 C46.01,160.40 46.40,159.13 47.00,159.50 C47.55,159.84 47.99,160.88 47.98,161.81 ZM 137.00 440.11 C137.00,441.54 134.36,441.14 133.00,439.50 C132.25,438.59 132.17,438.00 132.80,438.00 C134.63,438.00 137.00,439.19 137.00,440.11 ZM 75.00 384.56 C75.00,385.35 74.54,386.00 73.97,386.00 C72.77,386.00 71.49,383.18 72.31,382.36 C73.19,381.48 75.00,382.97 75.00,384.56 ZM 105.65 417.54 C106.36,419.38 105.95,419.89 104.25,419.28 C102.75,418.74 102.57,416.00 104.03,416.00 C104.60,416.00 105.33,416.69 105.65,417.54 ZM 80.30 110.51 C79.96,112.25 77.00,112.24 77.00,110.50 C77.00,109.47 77.66,108.98 78.75,109.19 C79.71,109.38 80.41,109.97 80.30,110.51 ZM 56.87 356.39 C58.25,359.75 58.03,360.38 56.18,358.37 C55.46,357.58 55.05,356.17 55.28,355.22 C55.59,353.91 55.97,354.19 56.87,356.39 ZM 49.99 154.02 C48.75,156.34 48.00,156.56 48.00,154.61 C48.00,153.84 48.69,152.95 49.52,152.63 C50.77,152.15 50.85,152.41 49.99,154.02 Z" fill="rgb(42,53,131)"/>
<path d="M 278.50 476.47 C220.74,483.20 163.53,467.55 115.04,431.75 C96.92,418.36 73.43,392.90 60.85,373.00 C50.15,356.07 38.38,329.70 33.63,312.00 C27.40,288.82 25.65,275.29 25.60,250.00 C25.56,224.99 27.31,211.45 33.56,188.26 C38.03,171.72 48.68,146.65 56.34,134.68 C58.35,131.54 60.00,128.68 60.00,128.33 C60.00,127.70 60.71,126.70 71.89,111.50 C85.67,92.76 110.44,69.98 130.00,58.05 C170.48,33.35 207.56,22.66 252.50,22.72 C286.83,22.77 312.58,28.02 343.00,41.19 C370.32,53.02 391.73,67.62 413.03,88.95 C441.75,117.71 460.72,150.38 471.47,189.60 C477.07,210.05 479.18,226.28 479.24,249.50 C479.38,310.77 458.35,363.35 415.47,408.85 C380.93,445.51 330.51,470.40 278.50,476.47 ZM 230.72 468.95 C244.43,470.39 273.63,469.43 287.50,467.09 C309.68,463.35 328.92,457.06 349.12,446.95 C367.26,437.87 378.81,430.00 397.38,414.06 C427.47,388.23 451.43,350.35 463.13,310.15 C468.68,291.08 471.00,273.37 471.00,250.04 C471.00,228.26 469.33,214.36 464.39,195.03 C454.75,157.34 435.29,123.09 408.07,95.96 C395.50,83.42 393.49,81.64 384.53,75.02 C353.93,52.42 326.12,40.40 288.00,33.29 C274.17,30.72 230.73,30.76 216.50,33.36 C182.47,39.58 154.07,51.36 125.75,71.00 C104.59,85.67 80.54,111.20 66.40,134.00 C26.44,198.41 22.30,278.34 55.45,345.70 C67.40,369.99 79.25,386.44 98.94,406.09 C133.89,440.96 181.87,463.85 230.72,468.95 ZM 272.29 370.51 C267.31,371.38 258.46,371.94 251.12,371.86 C236.86,371.71 236.89,371.71 224.22,368.90 C176.80,358.38 138.89,318.67 130.44,270.67 C128.55,259.93 128.58,237.67 130.51,227.63 C138.98,183.37 171.33,146.79 214.00,133.22 C243.26,123.92 280.47,126.63 306.97,140.00 C324.80,148.99 343.14,165.34 354.38,182.26 C378.16,218.06 381.12,266.01 361.90,304.22 C344.53,338.74 310.63,363.82 272.29,370.51 ZM 266.50 368.38 C269.80,367.51 274.36,366.72 276.63,366.63 C278.89,366.53 281.44,365.88 282.28,365.18 C283.13,364.48 285.65,364.02 287.89,364.15 C290.92,364.33 292.55,363.83 294.29,362.19 C295.58,360.99 297.02,360.00 297.50,360.00 C297.98,360.00 299.30,359.13 300.44,358.06 C301.58,356.99 304.08,355.84 306.00,355.50 C307.93,355.17 311.75,353.34 314.51,351.44 C317.26,349.55 320.07,348.00 320.74,348.00 C321.41,348.00 322.69,346.88 323.59,345.50 C324.49,344.12 326.02,343.00 326.99,343.00 C329.11,343.00 341.40,331.06 343.54,326.93 C344.37,325.32 345.46,324.00 345.96,324.00 C346.46,324.00 347.18,322.99 347.58,321.75 C347.97,320.51 349.11,318.60 350.12,317.50 C355.34,311.82 357.01,309.83 357.08,309.20 C357.42,306.09 358.11,304.39 359.44,303.42 C360.30,302.79 361.00,301.30 361.00,300.10 C361.00,298.90 361.90,296.16 363.00,294.00 C364.10,291.84 365.00,289.21 365.00,288.15 C365.00,287.10 366.29,282.62 367.87,278.21 C370.89,269.75 371.52,264.27 371.43,247.00 C371.39,239.82 370.84,234.99 369.69,231.72 C368.76,229.08 368.00,225.13 368.00,222.93 C368.00,220.73 367.40,217.49 366.66,215.72 C365.92,213.95 364.99,210.79 364.60,208.70 C363.87,204.78 360.01,196.77 357.54,194.05 C356.77,193.20 355.26,190.45 354.19,187.94 C353.12,185.44 351.06,182.61 349.62,181.67 C348.18,180.73 347.00,179.23 347.00,178.33 C347.00,176.59 345.86,175.30 331.87,161.25 C326.81,156.16 322.27,152.00 321.79,152.00 C321.31,152.00 319.70,151.18 318.21,150.17 C316.72,149.17 313.48,146.99 311.00,145.32 C306.90,142.56 297.27,138.71 291.00,137.31 C289.62,137.01 287.52,135.74 286.33,134.50 C283.99,132.08 275.30,130.39 270.88,131.49 C269.55,131.83 266.75,131.37 264.62,130.49 C259.94,128.53 245.22,128.64 240.13,130.66 C238.27,131.40 235.05,132.00 232.96,132.00 C228.25,132.00 217.68,134.64 213.00,136.98 C211.07,137.95 207.43,139.04 204.89,139.41 C202.35,139.78 198.78,141.19 196.95,142.54 C195.11,143.89 193.14,145.02 192.56,145.04 C191.98,145.06 189.02,147.08 186.00,149.53 C182.98,151.97 178.80,155.12 176.73,156.51 C169.14,161.63 154.79,177.76 150.64,185.87 C149.61,187.86 148.19,189.84 147.47,190.25 C145.89,191.17 140.00,203.01 140.00,205.27 C140.00,206.16 139.58,207.14 139.08,207.45 C138.57,207.77 137.84,209.47 137.45,211.25 C137.06,213.02 136.07,215.50 135.24,216.75 C133.36,219.63 131.93,232.81 131.75,249.00 C131.59,263.34 132.18,268.97 135.02,280.09 C137.03,287.93 138.31,291.06 144.07,302.13 C145.68,305.22 147.00,308.64 147.00,309.72 C147.00,310.80 147.89,312.49 148.97,313.48 C150.06,314.46 151.22,316.10 151.54,317.13 C151.87,318.16 152.78,319.00 153.57,319.00 C154.36,319.00 155.00,319.37 155.00,319.83 C155.00,320.28 158.60,325.01 163.01,330.33 C168.13,336.51 171.72,340.00 172.97,340.00 C174.04,340.00 175.50,340.69 176.21,341.53 C179.91,345.92 184.06,350.00 184.83,350.00 C185.30,350.00 186.74,350.90 188.01,352.01 C189.28,353.11 192.05,354.53 194.16,355.17 C196.27,355.80 198.00,356.69 198.00,357.15 C198.00,357.60 199.78,358.26 201.95,358.61 C204.13,358.96 206.67,360.09 207.61,361.12 C208.60,362.22 210.65,363.00 212.53,363.00 C214.30,363.00 217.81,363.91 220.33,365.03 C223.23,366.31 225.86,366.82 227.47,366.42 C229.11,366.01 230.94,366.39 232.62,367.49 C234.51,368.73 236.36,369.03 239.36,368.59 C241.64,368.26 244.85,368.41 246.50,368.91 C251.20,370.35 259.94,370.12 266.50,368.38 ZM 269.00 452.99 C207.23,458.34 145.42,434.19 103.45,388.30 C84.98,368.11 72.44,348.10 62.51,323.00 C58.57,313.02 53.02,292.45 53.01,287.74 L 53.00 284.97 L 82.58 285.24 L 112.16 285.50 L 114.90 294.00 C121.96,315.87 133.64,334.67 150.98,352.05 C173.37,374.49 198.95,387.71 230.50,393.16 C253.36,397.11 279.66,394.44 302.53,385.83 C327.41,376.46 351.90,357.95 368.29,336.11 C375.56,326.44 384.51,309.11 389.03,296.00 L 392.64 285.50 L 422.32 285.24 C450.12,284.99 452.00,285.08 452.00,286.74 C452.00,290.30 447.04,308.81 443.22,319.50 C434.45,344.09 419.35,368.80 399.74,390.69 C394.39,396.66 375.61,412.35 365.96,418.92 C337.27,438.44 304.65,449.90 269.00,452.99 ZM 114.97 206.00 L 112.30 214.50 L 83.13 214.77 C81.08,214.78 79.17,214.80 77.39,214.82 C60.03,215.00 54.49,215.06 53.25,212.78 C52.67,211.71 53.04,210.13 53.57,207.80 C53.69,207.29 53.81,206.75 53.94,206.16 C61.73,170.01 79.66,136.80 106.36,109.09 C137.43,76.83 172.19,58.20 217.00,49.76 C226.78,47.92 232.10,47.60 252.50,47.60 C278.37,47.60 289.20,48.93 309.29,54.58 C371.96,72.20 423.87,122.31 444.93,185.50 C449.28,198.57 452.35,211.64 451.55,213.72 C451.15,214.77 445.20,214.98 421.78,214.77 L 392.51 214.50 L 388.91 203.89 C381.34,181.58 371.05,164.98 354.54,148.45 C333.73,127.61 310.01,114.54 281.77,108.32 C275.17,106.87 269.15,106.50 252.00,106.52 C231.99,106.54 229.76,106.73 219.78,109.24 C213.89,110.73 205.02,113.51 200.08,115.41 C160.33,130.77 127.65,165.54 114.97,206.00 ZM 231.16 360.93 C229.87,360.42 227.76,360.19 226.46,360.42 C225.17,360.65 223.59,360.21 222.94,359.42 C222.29,358.64 220.43,358.00 218.80,358.00 C215.12,358.00 201.05,353.35 198.92,351.43 C198.05,350.64 196.88,350.00 196.31,350.00 C195.74,350.00 193.58,348.65 191.50,347.00 C189.42,345.35 187.27,344.00 186.70,344.00 C185.81,344.00 178.73,337.98 171.00,330.65 C168.18,327.98 157.72,314.47 157.08,312.68 C156.86,312.04 155.25,309.48 153.52,307.01 C148.96,300.50 143.00,287.63 143.00,284.30 C143.00,282.73 142.21,280.33 141.25,278.97 C140.14,277.40 139.42,274.30 139.28,270.50 C139.16,267.20 138.83,259.55 138.54,253.50 C137.96,241.10 139.64,221.87 141.66,217.80 C142.40,216.31 143.00,214.36 143.00,213.46 C143.00,212.55 143.90,210.67 145.00,209.27 C146.10,207.87 147.00,205.71 147.00,204.47 C147.00,201.84 151.56,192.84 156.06,186.57 C158.58,183.06 159.94,182.10 163.17,181.59 L 167.17 180.95 L 166.52 177.11 C165.90,173.47 166.11,173.08 170.69,169.15 C182.69,158.84 188.84,154.13 193.00,152.03 C195.48,150.78 198.18,149.22 199.00,148.55 C200.80,147.10 208.39,144.27 212.34,143.59 C213.90,143.32 215.86,142.53 216.71,141.83 C217.56,141.12 220.78,140.26 223.87,139.91 C226.97,139.55 233.55,138.50 238.50,137.56 C249.82,135.43 260.46,135.06 262.15,136.75 C262.84,137.44 264.55,138.00 265.95,138.01 C267.35,138.01 269.75,138.67 271.28,139.46 C272.81,140.26 274.66,140.68 275.40,140.40 C277.03,139.78 291.84,143.36 295.72,145.32 C297.25,146.09 299.84,147.04 301.47,147.43 C303.10,147.83 306.23,149.46 308.41,151.07 C310.60,152.68 312.91,154.00 313.53,154.00 C316.34,154.00 341.00,176.43 341.00,178.98 C341.00,179.40 342.72,181.94 344.83,184.62 C346.94,187.30 349.43,191.46 350.36,193.85 C351.30,196.25 353.63,200.25 355.53,202.75 C357.51,205.34 359.00,208.45 359.00,209.98 C359.00,211.47 359.67,214.89 360.49,217.59 C361.31,220.29 361.98,223.77 361.99,225.32 C362.00,226.86 362.53,229.11 363.18,230.32 C364.71,233.15 365.23,257.67 363.81,260.45 C363.48,261.10 362.89,261.92 362.24,262.66 C363.66,257.54 363.29,238.31 360.96,227.56 C356.97,209.11 349.22,193.34 337.00,178.75 C326.48,166.19 316.41,158.16 302.50,151.25 C293.76,146.91 283.11,143.00 280.04,143.00 C277.47,143.00 276.56,147.81 277.26,157.89 C278.71,179.13 296.23,201.53 328.93,223.95 C346.41,235.94 354.96,245.76 358.99,258.50 C359.69,260.70 360.46,262.84 360.70,263.27 C360.84,263.52 360.98,263.70 361.11,263.80 C361.01,263.90 360.91,263.98 360.81,264.06 C359.16,265.38 358.79,267.17 358.47,275.56 C357.97,288.69 352.31,306.22 347.25,310.32 C346.01,311.33 345.00,312.72 345.00,313.42 C345.00,314.12 344.10,315.73 343.00,317.00 C341.90,318.27 341.00,319.85 341.00,320.51 C341.00,322.09 325.15,339.00 323.66,339.00 C323.02,339.01 320.21,340.75 317.41,342.87 C310.80,347.88 291.63,357.08 286.50,357.71 C284.30,357.98 280.02,359.09 277.00,360.18 C272.51,361.81 270.16,362.05 264.26,361.50 C260.27,361.13 256.76,360.42 256.45,359.92 C256.14,359.41 254.27,359.00 252.31,359.00 C250.34,359.00 247.23,358.07 245.38,356.93 C241.83,354.73 237.44,355.09 238.36,357.50 C238.49,357.84 238.41,358.31 238.18,358.81 C237.58,358.02 235.67,356.52 233.26,354.98 C222.52,348.15 214.53,337.38 211.37,325.50 C208.72,315.51 208.72,307.37 211.36,288.91 C218.18,241.39 214.52,213.64 199.25,196.96 C193.27,190.42 186.74,186.62 177.91,184.54 C168.52,182.33 163.78,182.53 161.28,185.25 C157.48,189.38 149.33,204.80 146.63,212.96 C142.17,226.46 141.00,234.06 141.00,249.50 C141.00,274.50 146.59,292.93 160.13,312.57 C166.04,321.14 180.17,335.10 188.91,340.97 C201.46,349.43 215.64,355.13 234.50,359.32 C235.60,359.57 236.76,359.82 237.08,359.88 C237.21,359.91 237.38,359.88 237.57,359.82 C236.70,360.97 235.36,362.00 234.42,361.94 C233.91,361.90 232.45,361.45 231.16,360.93 ZM 279.35 449.06 C283.19,447.85 298.02,444.88 303.50,444.23 C305.70,443.97 308.39,443.13 309.47,442.38 C310.56,441.62 313.34,441.00 315.66,441.00 C317.98,441.00 320.14,440.58 320.46,440.07 C321.09,439.04 344.58,427.31 349.84,425.39 C351.68,424.72 354.16,423.29 355.34,422.21 C357.46,420.30 360.38,418.60 366.61,415.68 C368.31,414.88 371.34,412.60 373.32,410.61 C375.31,408.63 377.35,407.00 377.85,407.00 C378.36,407.00 379.51,405.88 380.41,404.50 C381.31,403.12 382.70,402.00 383.50,402.00 C384.30,402.00 385.74,400.76 386.71,399.25 C389.16,395.42 395.98,388.77 399.12,387.15 C400.56,386.41 402.76,383.93 404.01,381.65 C405.26,379.37 407.77,375.92 409.60,374.00 C414.44,368.89 421.40,358.58 425.81,350.00 C427.92,345.88 430.86,340.30 432.33,337.60 C433.80,334.91 435.00,332.05 435.00,331.26 C435.00,330.46 435.65,328.61 436.45,327.15 C439.56,321.45 442.22,314.28 442.98,309.50 C443.42,306.75 444.76,301.84 445.96,298.58 C448.43,291.87 448.05,288.45 444.76,287.72 C440.73,286.83 396.54,286.94 395.16,287.85 C394.43,288.33 393.67,290.39 393.48,292.43 C393.29,294.47 392.50,297.12 391.73,298.32 C390.95,299.52 390.06,301.85 389.73,303.50 C389.41,305.15 387.14,310.13 384.68,314.57 C382.23,319.00 380.05,323.50 379.85,324.57 C379.64,325.67 378.50,326.64 377.19,326.83 C375.82,327.02 374.50,328.19 373.92,329.72 C373.38,331.13 371.66,333.91 370.10,335.89 C368.54,337.88 366.96,340.49 366.58,341.70 C366.21,342.91 365.01,344.18 363.92,344.53 C362.83,344.87 361.03,347.08 359.93,349.43 C358.82,351.78 356.78,354.32 355.38,355.06 C353.99,355.81 352.41,357.23 351.89,358.21 C351.36,359.19 350.34,360.00 349.61,360.00 C348.88,360.00 345.43,362.76 341.94,366.13 C338.45,369.51 334.45,372.77 333.05,373.39 C330.56,374.49 326.87,376.78 316.28,383.82 C312.50,386.33 309.61,387.42 305.78,387.77 C302.88,388.03 299.81,388.85 298.96,389.59 C298.11,390.33 295.86,391.01 293.96,391.10 C292.06,391.19 287.27,392.33 283.33,393.63 C278.49,395.23 273.85,396.00 269.02,396.00 C265.10,396.00 259.94,396.49 257.57,397.09 C254.46,397.87 250.91,397.87 244.88,397.09 C240.27,396.49 232.45,395.53 227.50,394.96 C222.55,394.39 216.93,393.32 215.00,392.59 C213.07,391.86 209.34,390.95 206.70,390.56 C204.07,390.18 199.12,388.38 195.70,386.57 C192.29,384.76 184.46,380.71 178.29,377.56 C171.14,373.90 165.82,370.43 163.60,367.98 C161.68,365.86 158.85,363.33 157.31,362.36 C152.12,359.09 145.00,352.83 145.00,351.52 C145.00,350.81 142.52,347.67 139.50,344.54 C136.48,341.42 134.00,338.30 134.00,337.61 C134.00,336.92 132.43,334.52 130.50,332.27 C128.57,330.02 127.00,327.94 127.00,327.65 C127.00,327.36 124.75,323.38 122.00,318.81 C119.25,314.24 117.00,310.09 117.00,309.60 C117.00,309.10 115.79,306.17 114.31,303.10 C112.84,300.02 111.10,295.48 110.46,293.00 C108.67,286.07 107.91,285.89 82.50,286.27 C70.40,286.45 59.75,286.95 58.83,287.38 C55.96,288.71 55.98,290.64 59.02,302.60 C61.58,312.64 63.97,319.16 71.64,337.00 C76.12,347.40 85.98,364.25 91.25,370.50 C92.76,372.30 94.00,374.12 94.00,374.56 C94.00,375.00 95.46,376.76 97.25,378.48 C99.04,380.20 102.75,384.17 105.50,387.30 C108.25,390.43 111.29,393.26 112.26,393.57 C113.23,393.88 114.70,395.46 115.54,397.07 C116.37,398.68 117.67,400.00 118.44,400.00 C119.20,400.00 120.96,401.35 122.35,403.00 C123.73,404.65 125.48,406.00 126.23,406.00 C126.97,406.00 129.59,408.06 132.04,410.59 C134.49,413.11 139.13,416.51 142.34,418.15 C145.56,419.78 150.01,422.45 152.24,424.06 C154.47,425.68 156.99,427.00 157.84,427.00 C158.69,427.00 162.33,428.75 165.94,430.89 C169.55,433.03 175.74,435.74 179.71,436.92 C183.68,438.10 187.19,439.50 187.52,440.03 C187.85,440.56 189.33,441.00 190.81,441.01 C192.29,441.02 195.91,442.14 198.85,443.51 C202.38,445.15 205.96,446.00 209.38,446.00 C212.64,446.00 215.46,446.63 217.00,447.71 C218.71,448.91 222.56,449.63 229.97,450.12 C243.56,451.03 275.27,450.35 279.35,449.06 ZM 258.09 357.93 C279.47,361.71 312.24,347.39 333.30,325.06 C360.05,296.70 363.54,262.46 341.85,241.14 C340.01,239.33 331.75,233.09 323.50,227.28 C289.54,203.36 271.00,177.73 271.00,154.70 C271.00,150.73 271.41,146.06 271.91,144.32 C273.10,140.16 272.67,140.02 256.53,139.34 C232.36,138.31 210.39,144.33 190.41,157.45 C182.41,162.71 168.79,174.86 169.27,176.31 C169.47,176.90 172.75,177.92 176.56,178.57 C186.14,180.21 193.47,183.74 200.28,189.97 C210.79,199.59 216.69,212.62 219.53,232.50 C221.84,248.66 221.31,259.66 216.42,296.50 C214.46,311.29 215.16,320.06 219.12,330.37 C224.29,343.84 239.58,354.65 258.09,357.93 ZM 107.51 211.35 C108.33,210.53 109.00,209.32 109.00,208.67 C109.00,208.02 109.90,206.92 111.00,206.23 C112.10,205.55 113.00,204.18 113.00,203.20 C113.00,202.22 113.85,199.76 114.89,197.72 C115.92,195.69 117.05,192.53 117.39,190.72 C117.73,188.90 119.59,184.97 121.51,181.99 C123.43,179.01 125.00,175.74 125.00,174.72 C125.00,172.89 137.79,156.70 141.21,154.19 C142.20,153.47 143.00,152.20 143.00,151.37 C143.00,149.73 152.76,140.31 156.63,138.22 C157.94,137.51 161.14,134.74 163.75,132.07 C166.36,129.39 169.62,127.04 170.99,126.85 C172.52,126.64 173.99,125.44 174.80,123.75 C175.93,121.38 176.70,121.00 180.43,121.00 C183.05,121.00 185.24,120.41 186.00,119.50 C186.68,118.68 188.03,118.00 189.00,118.00 C189.97,118.00 191.24,117.42 191.83,116.71 C192.83,115.50 202.34,110.82 206.25,109.61 C207.21,109.31 208.00,108.64 208.00,108.12 C208.00,106.72 193.05,107.31 192.16,108.74 C191.19,110.32 186.64,110.41 180.68,108.97 C178.03,108.33 175.63,108.03 175.36,108.31 C175.08,108.59 174.78,111.55 174.68,114.90 L 174.50 120.99 L 170.20 121.00 C166.85,121.00 165.37,121.58 163.47,123.63 C162.13,125.07 161.23,126.56 161.46,126.94 C162.25,128.21 152.44,135.27 146.02,138.05 C144.38,138.76 143.43,138.78 143.21,138.12 C143.02,137.57 141.66,135.53 140.19,133.59 C138.71,131.65 136.68,128.91 135.68,127.50 C134.68,126.09 132.04,123.79 129.83,122.39 C126.65,120.38 125.89,119.36 126.23,117.56 C126.52,116.08 126.02,114.87 124.84,114.13 C121.60,112.11 122.63,109.36 127.49,107.00 C129.96,105.81 132.54,105.01 133.21,105.24 C133.89,105.46 135.36,107.40 136.47,109.55 C137.59,111.69 139.58,113.98 140.89,114.64 C142.21,115.29 144.38,117.01 145.72,118.45 C148.13,121.06 150.96,121.22 153.45,118.89 C153.97,118.40 155.86,118.00 157.64,118.00 C159.42,118.00 161.15,117.56 161.48,117.03 C162.10,116.03 157.24,105.98 153.28,100.11 C150.65,96.20 150.20,91.00 152.50,91.00 C153.32,91.00 154.00,90.49 154.00,89.86 C154.00,89.06 155.56,88.94 159.25,89.45 C159.93,89.55 160.56,89.63 161.14,89.72 C165.37,90.32 167.19,90.58 167.91,89.81 C168.47,89.22 168.39,88.05 168.27,86.00 C168.24,85.62 168.22,85.22 168.20,84.78 C167.91,79.37 168.03,79.03 170.45,78.42 C171.86,78.07 174.54,78.07 176.41,78.42 C179.42,78.98 180.21,79.87 183.43,86.28 C188.35,96.10 192.10,102.23 192.77,101.56 C193.37,100.96 191.88,95.38 189.01,87.50 C188.00,84.75 186.96,80.57 186.68,78.21 C186.20,74.14 186.37,73.78 189.91,71.44 C192.70,69.59 195.54,68.82 201.19,68.36 C208.03,67.81 209.04,67.97 211.86,70.05 C216.16,73.24 219.83,79.10 221.18,84.97 C221.81,87.69 222.73,89.67 223.22,89.37 C224.75,88.42 229.00,77.88 229.00,75.01 C229.00,73.50 229.90,71.13 231.00,69.73 C232.10,68.33 233.00,66.76 233.00,66.25 C233.00,65.73 233.91,64.49 235.02,63.48 C236.99,61.70 237.13,61.70 239.77,63.68 C241.29,64.81 244.84,70.31 247.77,76.06 C250.66,81.75 253.77,87.52 254.66,88.89 L 256.29 91.37 L 258.14 89.07 C259.37,87.56 260.00,85.17 260.00,82.05 C260.00,79.45 260.67,75.11 261.49,72.41 C262.31,69.71 262.98,66.48 262.99,65.24 C263.00,63.76 264.13,62.28 266.24,61.00 L 269.48 59.03 L 272.59 62.53 C275.35,65.63 275.65,66.55 275.24,70.76 C274.99,73.37 274.18,77.28 273.44,79.45 C271.81,84.25 272.34,85.01 278.99,87.40 L 284.09 89.23 L 283.80 94.84 L 283.50 100.45 L 279.00 101.23 C276.52,101.66 273.38,101.61 272.00,101.12 C270.62,100.63 267.48,99.68 265.00,99.00 C262.52,98.32 259.29,97.33 257.81,96.79 C255.95,96.11 254.00,96.17 251.53,96.99 C248.40,98.02 247.42,97.90 243.87,96.05 C239.31,93.67 237.53,93.93 233.37,97.57 C231.20,99.48 229.79,99.96 227.57,99.54 C225.96,99.23 224.47,98.80 224.25,98.58 C223.83,98.16 223.20,95.33 223.08,93.25 C222.94,90.94 221.26,91.97 217.87,96.44 C216.02,98.88 213.51,101.42 212.30,102.08 C210.34,103.15 208.50,105.84 209.23,106.56 C209.38,106.71 210.71,107.14 212.18,107.51 C214.19,108.01 215.30,107.68 216.58,106.18 C217.97,104.55 218.72,104.37 220.57,105.21 C222.17,105.94 223.81,105.91 226.08,105.12 C229.66,103.88 243.79,102.42 248.50,102.82 C250.15,102.96 256.45,103.20 262.50,103.35 C268.92,103.52 275.79,104.31 279.00,105.26 C282.02,106.16 287.20,107.20 290.50,107.58 C293.91,107.98 297.53,109.08 298.88,110.14 C300.20,111.16 302.00,112.01 302.88,112.03 C303.77,112.04 307.64,113.39 311.47,115.03 C315.31,116.66 319.24,118.00 320.21,118.00 C321.19,118.00 322.55,118.94 323.24,120.08 C324.62,122.36 330.96,126.00 333.56,126.00 C334.46,126.00 337.75,128.59 340.87,131.75 C343.99,134.91 348.50,139.07 350.89,141.00 C357.01,145.93 368.00,157.06 368.00,158.33 C368.00,158.91 369.07,160.54 370.38,161.95 C371.68,163.35 373.18,165.85 373.71,167.50 C374.33,169.46 375.33,170.50 376.58,170.50 C378.80,170.50 378.71,167.49 376.41,164.92 C373.88,162.09 374.70,158.09 378.50,154.73 C380.42,153.03 382.00,151.04 382.00,150.32 C382.00,148.44 377.02,148.67 374.83,150.65 C373.12,152.20 372.59,152.09 366.44,148.97 C358.97,145.18 354.58,140.70 355.38,137.67 C355.66,136.58 355.44,134.83 354.89,133.79 C354.07,132.26 354.49,131.34 357.16,128.85 C358.97,127.16 361.49,125.38 362.77,124.90 C364.05,124.41 365.74,122.47 366.53,120.58 C367.32,118.69 368.81,116.88 369.85,116.55 C370.89,116.22 372.54,115.06 373.52,113.97 C375.77,111.49 381.68,111.38 384.65,113.77 C387.89,116.38 391.80,125.02 392.00,130.04 C392.33,138.04 392.10,139.01 389.67,139.93 C387.13,140.90 384.38,144.63 384.47,147.00 C384.55,149.25 388.76,148.31 393.98,144.87 C401.45,139.95 406.28,139.72 408.92,144.13 C409.79,145.58 411.68,148.28 413.13,150.13 C414.57,151.98 416.04,155.13 416.40,157.11 C417.22,161.71 415.36,163.48 410.54,162.70 C410.30,162.66 410.08,162.63 409.86,162.61 L 412.04 161.32 C413.69,160.34 414.85,159.04 414.61,158.42 C413.42,155.34 404.87,143.00 403.92,143.00 C402.26,143.00 377.00,159.13 377.00,160.19 C377.00,160.70 379.29,164.69 382.10,169.06 L 387.19 177.00 L 390.10 175.28 C390.36,175.13 390.61,174.97 390.86,174.81 C389.55,175.83 389.82,177.81 391.75,178.23 C392.71,178.44 394.51,177.97 395.75,177.19 C396.99,176.41 398.83,175.98 399.85,176.25 C400.86,176.52 402.78,176.13 404.10,175.40 C405.42,174.67 407.49,174.05 408.71,174.04 C409.93,174.02 411.73,173.16 412.71,172.14 C415.04,169.72 419.53,168.68 421.98,169.99 C423.04,170.56 424.37,172.68 424.93,174.71 C425.76,177.72 425.65,178.73 424.32,180.20 C423.42,181.19 422.17,182.00 421.54,182.00 C420.91,182.00 418.17,183.08 415.45,184.39 C412.73,185.71 409.31,187.05 407.86,187.38 C404.52,188.14 403.65,190.40 405.05,194.64 C405.99,197.49 405.85,198.40 404.14,200.80 C402.51,203.09 401.52,203.55 398.82,203.28 C394.03,202.79 392.33,204.20 393.55,207.65 C394.97,211.71 398.55,212.31 423.56,212.72 L 445.62 213.07 L 447.01 210.49 C448.15,208.36 448.17,207.17 447.13,203.70 C446.44,201.39 445.47,197.26 444.96,194.51 C444.46,191.77 443.52,188.17 442.89,186.51 C441.14,181.95 436.16,170.97 433.96,166.80 C432.88,164.77 432.00,161.96 432.00,160.56 C432.00,159.10 431.15,157.49 430.00,156.77 C428.90,156.08 428.00,154.78 428.00,153.88 C428.00,152.98 427.26,151.63 426.36,150.89 C425.46,150.14 423.89,147.59 422.88,145.21 C421.86,142.83 419.76,139.83 418.22,138.53 C416.67,137.23 414.11,133.77 412.52,130.83 C410.94,127.90 408.82,124.91 407.82,124.19 C406.82,123.47 406.00,122.21 406.00,121.39 C406.00,120.57 404.76,119.46 403.24,118.93 C401.46,118.31 399.77,116.48 398.45,113.74 C397.30,111.35 395.21,108.92 393.65,108.17 C392.13,107.43 390.42,105.86 389.86,104.67 C388.49,101.79 373.02,89.43 366.99,86.40 C364.37,85.08 361.98,83.40 361.70,82.67 C361.03,80.91 340.58,69.00 338.28,69.02 C337.30,69.03 332.90,67.26 328.50,65.10 C324.10,62.94 315.77,59.97 310.00,58.49 C304.23,57.02 297.58,54.96 295.22,53.91 C292.87,52.86 289.27,51.99 287.22,51.99 C285.18,51.98 281.70,51.40 279.50,50.71 C276.72,49.83 268.80,49.48 253.50,49.57 C226.65,49.73 213.25,51.11 205.58,54.51 C202.48,55.88 198.87,57.00 197.56,57.00 C196.26,57.00 192.18,58.35 188.50,60.00 C184.82,61.65 180.88,63.00 179.74,63.00 C178.60,63.00 175.27,64.35 172.35,66.00 C169.42,67.65 166.17,69.00 165.12,69.00 C164.06,69.00 160.99,70.46 158.28,72.25 C155.57,74.04 151.44,76.62 149.10,78.00 C146.76,79.38 142.74,82.10 140.17,84.06 C137.60,86.02 133.68,88.63 131.47,89.87 C129.25,91.11 126.55,93.45 125.47,95.06 C124.38,96.67 123.20,98.00 122.83,98.00 C122.46,98.00 118.06,101.51 113.06,105.79 C98.31,118.41 94.97,125.51 105.50,121.85 C106.05,121.66 107.55,122.55 108.84,123.84 C110.67,125.67 111.75,126.01 113.84,125.42 C119.18,123.90 124.51,125.15 130.72,129.36 C135.29,132.47 135.81,133.45 136.04,139.50 C136.51,151.75 136.23,152.94 131.92,157.08 C129.67,159.24 127.45,161.00 126.98,161.00 C126.51,161.00 124.86,161.52 123.32,162.15 C118.90,163.96 117.78,164.00 113.23,162.46 C110.89,161.66 108.64,161.06 108.23,161.12 C106.11,161.45 105.13,160.72 104.00,158.00 C103.32,156.35 102.41,155.00 101.98,155.00 C100.80,155.00 99.00,149.15 99.00,145.33 C99.00,143.48 97.84,139.74 96.42,137.03 C96.33,136.85 96.24,136.68 96.15,136.51 C97.68,137.56 100.50,136.52 100.82,134.25 C101.23,131.38 98.41,130.16 96.29,132.29 C95.64,132.94 95.24,133.89 95.23,134.72 C93.91,132.02 94.21,131.69 95.82,129.96 C98.02,127.60 98.07,124.50 95.90,124.50 C95.06,124.50 94.38,125.76 94.19,127.66 C93.97,129.95 92.94,131.47 90.47,133.16 C88.48,134.52 85.73,138.02 83.91,141.50 C82.19,144.80 79.25,149.59 77.39,152.13 C75.52,154.68 74.00,157.21 74.00,157.75 C74.00,158.29 71.97,162.80 69.50,167.78 C67.03,172.77 65.00,177.99 65.00,179.40 C65.00,180.80 63.42,184.87 61.50,188.43 C59.58,192.00 58.00,195.69 58.00,196.64 C58.00,197.58 57.47,199.82 56.82,201.61 C55.91,204.13 55.92,205.80 56.86,208.94 L 58.08 213.01 L 82.05 212.93 C101.88,212.86 106.27,212.58 107.51,211.35 ZM 102.00 204.28 C101.18,204.05 99.60,203.46 98.50,202.97 C91.30,199.80 83.84,197.00 82.56,197.00 C79.42,197.00 73.93,193.55 73.34,191.21 C72.43,187.58 75.66,185.11 83.44,183.48 C94.12,181.24 94.76,180.07 89.87,171.79 C88.16,168.88 86.52,164.81 86.24,162.75 C85.76,159.14 85.85,159.00 88.74,159.00 C90.40,159.00 93.66,159.68 96.00,160.50 C98.34,161.32 101.25,162.00 102.47,162.00 C103.69,162.00 105.50,162.90 106.50,164.00 C107.50,165.10 109.27,166.00 110.43,166.00 C111.60,166.00 113.99,167.52 115.74,169.37 C118.50,172.29 118.84,173.23 118.31,176.45 C117.88,179.12 117.05,180.41 115.34,181.06 C114.04,181.55 112.57,182.98 112.07,184.23 C110.28,188.72 109.90,189.53 108.54,191.90 C107.50,193.72 107.44,194.73 108.29,196.10 C110.65,199.88 106.32,205.51 102.00,204.28 ZM 112.00 159.88 C116.59,161.71 123.43,161.18 127.08,158.73 C132.61,155.00 135.00,150.56 135.00,144.00 C135.00,139.04 134.55,137.70 131.60,133.83 C126.19,126.74 117.11,125.22 109.16,130.05 C104.42,132.93 102.01,137.57 102.00,143.80 C102.00,151.42 105.69,157.36 112.00,159.88 ZM 305.65 108.17 C302.67,104.87 304.47,95.01 308.89,90.41 C310.19,89.06 311.00,86.92 311.00,84.83 C311.00,82.87 311.74,80.78 312.75,79.87 C313.71,79.00 315.31,77.29 316.30,76.07 C317.67,74.39 319.00,73.92 321.80,74.11 C326.40,74.42 327.84,75.11 331.95,78.95 C333.74,80.63 335.56,82.00 335.98,82.00 C337.77,82.00 339.21,88.10 338.52,92.74 C337.15,101.86 334.14,104.24 322.94,105.06 C317.17,105.48 314.61,106.16 312.51,107.81 C309.12,110.48 307.80,110.55 305.65,108.17 ZM 343.53 130.69 C342.65,129.35 341.73,127.21 341.49,125.95 C340.96,123.20 339.79,122.35 334.50,120.89 C328.46,119.21 326.22,117.94 325.68,115.88 C325.41,114.84 325.58,114.00 326.06,114.00 C326.54,114.00 326.67,113.30 326.34,112.45 C325.62,110.56 329.66,106.00 332.05,106.00 C332.99,106.00 334.32,105.32 335.00,104.50 C335.68,103.68 336.82,103.00 337.52,103.00 C338.23,103.00 341.50,100.97 344.79,98.50 C352.12,92.99 356.17,92.50 358.42,96.85 C359.82,99.54 359.61,103.30 357.96,105.50 C357.54,106.05 356.68,110.10 356.05,114.50 C355.41,118.90 354.68,123.88 354.43,125.58 C353.81,129.76 352.10,131.69 348.32,132.47 C345.65,133.02 344.87,132.73 343.53,130.69 ZM 197.55 103.75 C198.05,105.37 199.54,105.33 205.61,103.52 C213.45,101.20 218.00,95.36 218.00,87.63 C218.00,82.01 216.62,78.29 213.23,74.73 C209.15,70.45 204.08,69.52 195.87,71.53 C192.09,72.46 189.00,73.43 189.00,73.69 C189.00,74.08 196.24,99.53 197.55,103.75 ZM 366.49 145.65 C372.43,148.41 375.00,148.56 379.30,146.38 C383.84,144.08 385.94,142.03 388.11,137.79 C391.64,130.87 390.05,124.02 383.21,116.75 C381.79,115.24 380.15,114.02 379.56,114.04 C378.98,114.07 373.36,118.95 367.08,124.89 L 355.66 135.69 L 358.57 139.50 C360.23,141.68 363.62,144.31 366.49,145.65 ZM 97.50 199.80 C101.35,201.41 104.79,202.57 105.15,202.37 C105.51,202.17 106.25,200.72 106.80,199.15 C107.75,196.42 107.59,196.20 103.21,194.07 C98.02,191.55 98.59,190.50 105.76,189.41 C108.11,189.06 110.26,188.39 110.55,187.92 C110.84,187.46 110.01,185.37 108.71,183.29 C107.42,181.20 106.05,178.68 105.68,177.68 C105.12,176.17 105.38,175.98 107.26,176.56 C108.49,176.94 110.67,177.85 112.11,178.58 C114.53,179.81 114.81,179.72 115.86,177.41 C116.49,176.03 117.00,174.36 117.00,173.69 C117.00,172.52 88.32,159.35 87.51,160.16 C87.29,160.37 89.84,165.43 93.17,171.40 C97.47,179.09 98.88,182.46 98.02,182.98 C97.36,183.39 91.91,184.76 85.91,186.02 C79.91,187.28 75.00,188.62 75.00,189.00 C75.00,189.71 85.46,194.73 97.50,199.80 ZM 159.78 105.75 C163.98,113.59 167.95,120.00 168.60,120.00 C169.25,120.00 170.74,119.21 171.91,118.25 L 174.04 116.50 L 170.78 110.32 C168.99,106.92 167.80,103.86 168.15,103.52 C168.49,103.18 173.77,104.24 179.88,105.88 C186.00,107.52 191.00,108.45 191.00,107.95 C191.00,106.88 178.71,83.35 176.75,80.68 C175.60,79.10 175.05,79.02 172.71,80.09 C171.22,80.77 170.00,81.69 170.00,82.14 C170.00,82.59 171.44,85.88 173.20,89.45 C174.96,93.02 176.14,96.19 175.83,96.51 C175.51,96.82 174.19,96.65 172.88,96.13 C168.54,94.40 154.20,90.77 153.16,91.14 C152.60,91.34 155.58,97.91 159.78,105.75 ZM 307.72 106.41 C307.82,106.46 307.91,106.52 308.00,106.56 C309.64,107.45 310.47,107.91 311.12,107.72 C311.84,107.51 312.34,106.53 313.43,104.50 C315.41,100.82 317.07,100.32 321.53,102.01 C325.74,103.61 331.69,101.56 334.04,97.70 C336.66,93.40 336.60,87.03 333.90,83.60 C331.61,80.69 323.17,76.00 320.21,76.00 C318.81,76.00 316.82,79.32 312.00,89.75 C308.50,97.31 305.48,103.82 305.29,104.20 C305.10,104.59 306.19,105.58 307.72,106.41 ZM 225.54 97.06 C226.89,99.25 232.46,97.48 233.86,94.42 C234.82,92.31 235.62,92.00 240.24,92.00 C244.44,92.00 245.78,92.41 246.77,94.00 C248.02,96.01 253.36,96.85 254.38,95.20 C254.99,94.21 238.52,63.50 237.39,63.50 C236.26,63.50 224.82,95.90 225.54,97.06 ZM 347.25 129.32 C348.49,130.18 349.93,130.77 350.46,130.62 C350.99,130.48 352.25,125.89 353.25,120.43 C357.51,97.21 357.67,96.00 356.49,96.00 C355.55,96.00 328.65,112.15 327.00,113.70 C326.73,113.96 327.72,115.22 329.22,116.51 C331.53,118.50 332.36,118.69 334.72,117.81 C337.01,116.94 338.16,117.15 341.25,118.98 C344.37,120.82 345.00,121.75 345.00,124.48 C345.00,126.75 345.69,128.24 347.25,129.32 ZM 33.44 284.17 C33.09,278.85 32.41,273.77 31.93,272.87 C31.45,271.98 31.27,259.18 31.53,244.45 C31.94,220.58 32.22,217.01 34.07,211.79 C35.32,208.27 35.97,204.55 35.69,202.47 C35.43,200.56 35.62,199.00 36.11,199.00 C36.60,199.00 37.00,197.90 37.00,196.57 C37.00,195.23 37.45,192.94 38.01,191.49 C38.59,189.94 38.65,188.20 38.14,187.29 C37.48,186.11 36.88,186.89 35.64,190.55 C34.74,193.19 34.00,196.70 34.00,198.35 C34.00,200.00 33.26,202.16 32.35,203.16 C31.34,204.28 30.38,207.96 29.85,212.74 C29.38,217.01 28.52,223.65 27.92,227.50 C27.33,231.35 26.86,235.62 26.87,237.00 C26.87,238.38 26.90,245.71 26.93,253.30 C26.96,260.89 27.42,267.91 27.94,268.89 C28.47,269.87 29.33,275.67 29.85,281.77 C30.83,293.17 31.42,295.48 33.11,294.43 C33.70,294.07 33.83,290.05 33.44,284.17 ZM 469.46 307.88 C470.40,304.51 471.31,300.30 471.47,298.52 C471.64,296.74 472.27,294.36 472.89,293.21 C473.50,292.07 474.00,289.92 474.00,288.43 C474.00,285.30 476.04,278.00 476.91,278.00 C477.23,278.00 477.25,273.39 476.93,267.75 C476.62,262.11 476.27,249.54 476.14,239.81 C475.93,223.20 475.07,216.02 472.02,205.75 C469.70,197.95 467.94,203.16 470.07,211.50 C471.71,217.90 473.32,235.66 473.25,246.50 C473.14,263.61 471.83,286.45 470.89,287.60 C470.40,288.21 469.81,290.69 469.58,293.10 C469.36,295.52 468.46,299.52 467.60,302.00 C465.90,306.87 465.47,314.00 466.87,314.00 C467.35,314.00 468.51,311.24 469.46,307.88 ZM 144.34 134.25 C145.46,135.76 146.66,137.00 147.00,137.00 C148.05,137.00 162.00,124.96 162.00,124.06 C162.00,123.60 161.17,122.19 160.15,120.94 L 158.30 118.65 L 155.31 120.78 C153.67,121.95 151.74,123.60 151.04,124.45 C150.33,125.30 149.19,126.00 148.50,126.00 C147.80,126.00 143.72,121.72 139.42,116.50 C135.12,111.28 131.32,107.00 130.98,107.00 C130.63,107.00 129.33,108.08 128.09,109.40 L 125.84 111.80 L 134.07 121.65 C138.60,127.07 143.22,132.74 144.34,134.25 ZM 395.66 196.76 C397.74,201.47 398.30,202.04 400.27,201.45 C404.19,200.26 404.53,199.25 402.65,194.24 C401.67,191.63 400.79,189.06 400.69,188.53 C400.58,188.00 405.54,185.52 411.70,183.03 C417.87,180.54 423.17,178.22 423.49,177.88 C424.46,176.84 421.78,172.00 420.24,172.00 C418.54,172.00 392.90,181.90 391.64,183.04 C390.69,183.90 392.09,188.68 395.66,196.76 ZM 270.82 97.62 C281.27,99.14 281.45,99.10 281.80,94.89 L 282.10 91.29 L 276.88 90.67 C274.00,90.33 271.25,89.65 270.76,89.16 C270.23,88.63 270.50,83.40 271.40,76.44 C272.25,69.93 272.81,64.48 272.65,64.32 C272.49,64.15 270.93,63.74 269.19,63.39 C266.95,62.94 265.91,63.16 265.63,64.13 C264.60,67.67 261.84,95.18 262.45,95.80 C262.83,96.18 266.60,97.00 270.82,97.62 ZM 277.50 474.19 C286.20,473.30 300.04,470.08 312.77,465.99 C318.95,464.00 321.04,462.42 316.00,463.55 C314.08,463.98 311.25,464.25 309.73,464.15 C308.21,464.05 304.84,464.94 302.23,466.14 C299.63,467.33 295.48,468.46 293.00,468.64 C290.52,468.83 285.12,469.45 281.00,470.03 C276.88,470.61 264.95,471.29 254.50,471.55 C233.38,472.08 230.68,472.52 236.00,474.59 C239.73,476.05 261.42,475.84 277.50,474.19 ZM 124.98 150.44 C118.71,156.61 109.55,152.74 109.55,143.93 C109.55,138.97 112.32,136.04 117.67,135.32 C120.92,134.88 122.16,135.24 124.55,137.29 C128.45,140.65 128.65,146.82 124.98,150.44 ZM 208.65 93.25 C205.81,96.31 204.74,96.60 203.19,94.73 C201.78,93.03 198.01,79.32 198.75,78.58 C199.07,78.26 200.78,78.00 202.56,78.00 C207.31,78.00 210.11,80.76 210.70,86.04 C211.12,89.83 210.82,90.91 208.65,93.25 ZM 378.06 138.97 C375.10,140.55 370.46,140.20 367.99,138.20 L 365.77 136.39 L 372.53 130.19 C379.78,123.55 381.26,123.37 382.50,129.00 C383.23,132.32 380.96,137.42 378.06,138.97 ZM 391.17 174.60 C392.24,173.88 393.00,173.20 393.00,172.93 C393.00,172.59 391.66,170.32 390.02,167.90 C386.62,162.89 386.34,161.47 388.58,160.61 C391.22,159.59 391.72,159.87 393.87,163.50 C396.24,167.52 396.63,167.62 399.91,165.10 L 402.32 163.25 L 400.06 159.60 C398.24,156.65 398.04,155.66 399.02,154.47 C401.10,151.97 402.71,152.81 405.93,158.05 L 408.70 162.55 C406.93,162.60 405.53,163.39 402.80,165.56 C400.44,167.44 397.93,168.98 397.23,168.99 C396.53,169.00 395.46,170.09 394.86,171.42 C394.25,172.74 392.91,174.05 391.88,174.32 C391.62,174.39 391.38,174.49 391.17,174.60 ZM 288.43 29.11 C289.61,27.20 286.04,26.24 275.50,25.64 C269.45,25.29 261.60,24.58 258.05,24.05 C252.54,23.23 251.02,23.37 247.55,24.96 L 243.50 26.83 L 247.00 27.08 C248.93,27.22 255.00,27.46 260.50,27.61 C266.00,27.77 273.42,28.31 277.00,28.81 C286.04,30.08 287.80,30.13 288.43,29.11 ZM 122.90 146.85 C124.36,142.67 124.32,142.32 122.09,140.09 C120.51,138.51 119.51,138.32 116.44,139.01 C112.33,139.94 111.04,141.32 111.02,144.80 C111.00,146.44 111.93,147.50 114.25,148.51 C119.55,150.81 121.66,150.41 122.90,146.85 ZM 326.02 37.52 C325.32,36.69 324.12,36.00 323.34,36.00 C322.57,36.00 320.88,35.32 319.61,34.48 C318.33,33.64 314.41,32.54 310.89,32.04 C307.38,31.53 303.27,30.82 301.77,30.45 C300.26,30.08 298.24,30.08 297.27,30.46 C295.61,31.10 295.62,31.23 297.44,32.57 C298.51,33.36 300.58,34.00 302.04,34.00 C303.50,34.00 306.02,34.66 307.65,35.48 C310.49,36.89 326.08,40.05 326.89,39.38 C327.11,39.20 326.72,38.36 326.02,37.52 ZM 368.56 442.52 C369.63,441.70 372.18,440.56 374.24,439.98 C376.76,439.27 378.48,437.98 379.48,436.03 C380.30,434.44 381.98,432.82 383.20,432.44 C384.42,432.05 386.26,430.67 387.28,429.37 C388.31,428.06 389.92,427.00 390.87,427.00 C393.11,427.00 395.00,425.08 395.00,422.80 C395.00,419.28 389.58,421.54 388.60,425.47 C388.25,426.86 387.27,428.00 386.43,428.00 C385.58,428.00 383.45,429.35 381.70,431.00 C379.94,432.64 377.79,433.99 376.92,434.00 C376.06,434.00 374.33,435.09 373.08,436.42 C371.83,437.75 369.53,439.37 367.97,440.01 C364.99,441.25 363.17,444.00 365.34,444.00 C366.04,444.00 367.49,443.33 368.56,442.52 ZM 234.29 28.11 C238.03,27.64 241.32,27.01 241.61,26.72 C243.85,24.48 219.61,24.98 215.98,27.24 C210.97,30.38 215.03,30.57 234.29,28.11 ZM 333.56 459.99 C335.96,459.98 345.51,455.61 346.44,454.10 C347.77,451.95 344.02,451.83 340.66,453.90 C338.79,455.06 336.65,456.00 335.90,456.00 C334.16,456.00 324.01,461.27 324.00,462.18 C324.00,463.74 327.66,463.51 329.56,461.83 C330.70,460.82 332.50,460.00 333.56,459.99 ZM 327.80 93.80 C326.19,95.41 323.89,95.31 321.31,93.51 C319.07,91.94 319.12,89.86 321.48,86.68 C322.74,84.98 323.03,84.96 325.91,86.45 C329.18,88.15 330.06,91.54 327.80,93.80 ZM 88.50 100.99 C88.93,99.06 90.21,97.43 92.05,96.47 C93.92,95.51 94.73,94.46 94.36,93.49 C93.43,91.06 91.74,91.74 86.73,96.53 C81.85,101.21 81.17,102.77 83.15,104.75 C84.90,106.50 87.73,104.51 88.50,100.99 ZM 397.00 79.18 C397.00,78.38 388.80,69.76 385.58,67.18 C384.68,66.46 382.96,66.01 381.75,66.18 C379.73,66.48 379.87,66.81 383.62,70.50 C387.88,74.69 394.93,80.00 396.24,80.00 C396.66,80.00 397.00,79.63 397.00,79.18 ZM 118.03 74.25 C122.01,69.91 124.11,66.18 122.97,65.48 C121.61,64.64 112.38,72.45 111.71,74.99 C110.91,78.06 114.97,77.58 118.03,74.25 ZM 228.52 471.44 C227.38,470.58 224.86,470.04 222.52,470.17 C220.31,470.29 215.24,469.77 211.24,469.03 C204.59,467.79 201.68,468.01 203.31,469.65 C203.67,470.00 207.09,470.58 210.93,470.93 C214.76,471.28 218.22,471.89 218.62,472.28 C219.01,472.68 221.85,472.99 224.92,472.97 C230.09,472.94 230.35,472.83 228.52,471.44 ZM 201.59 33.69 C205.53,33.51 209.00,31.72 209.00,29.88 C209.00,28.59 203.60,28.80 202.26,30.14 C201.63,30.77 198.77,31.65 195.89,32.11 C193.02,32.56 190.18,33.44 189.58,34.07 C188.78,34.91 189.65,35.03 193.00,34.54 C195.48,34.17 199.34,33.79 201.59,33.69 ZM 388.59 183.50 C389.50,179.86 388.55,178.31 385.08,177.80 C382.20,177.38 382.00,177.55 382.00,180.47 C382.00,185.95 387.36,188.41 388.59,183.50 ZM 450.00 144.89 C450.00,142.18 444.08,133.00 442.33,133.00 C440.40,133.00 440.70,136.66 442.75,138.19 C443.71,138.91 445.36,141.19 446.41,143.25 C448.53,147.42 450.00,148.09 450.00,144.89 ZM 141.78 57.37 C143.59,56.15 145.61,54.94 146.28,54.70 C147.16,54.38 147.20,53.92 146.43,53.10 C145.10,51.69 134.00,56.43 134.00,58.41 C134.00,61.47 136.16,61.18 141.78,57.37 ZM 58.88 140.77 C60.96,136.57 60.88,135.00 58.58,135.00 C57.20,135.00 54.00,142.28 54.00,145.41 C54.00,148.11 56.36,145.87 58.88,140.77 ZM 154.14 449.97 C152.84,448.89 151.11,448.00 150.30,448.00 C149.48,448.00 147.67,447.10 146.27,446.00 C143.68,443.96 141.00,443.35 141.00,444.80 C141.00,446.31 143.40,448.00 145.55,448.00 C146.73,448.00 148.73,448.90 150.00,450.00 C151.27,451.10 153.25,451.99 154.40,451.97 C156.45,451.93 156.44,451.88 154.14,449.97 ZM 129.52 436.03 C128.54,434.94 126.80,433.76 125.66,433.39 C124.53,433.03 122.98,432.12 122.23,431.37 C120.58,429.72 119.00,429.59 119.00,431.09 C119.00,431.70 119.93,432.43 121.08,432.73 C122.22,433.03 123.56,434.34 124.05,435.64 C124.74,437.44 125.71,438.00 128.13,438.00 C131.23,438.00 131.27,437.95 129.52,436.03 ZM 38.00 307.32 C38.00,304.41 33.81,296.68 32.97,298.04 C31.69,300.11 34.99,309.00 37.04,309.00 C37.57,309.00 38.00,308.24 38.00,307.32 ZM 160.75 48.06 C163.54,45.73 163.59,45.00 160.95,45.00 C158.38,45.00 153.00,47.72 153.00,49.03 C153.00,50.70 158.39,50.03 160.75,48.06 ZM 422.79 103.82 C422.96,102.99 421.43,101.04 419.39,99.49 L 415.70 96.67 L 416.43 99.58 C417.76,104.91 422.03,107.75 422.79,103.82 ZM 435.98 379.28 C437.09,378.34 438.48,376.09 439.07,374.28 C439.67,372.48 440.57,371.00 441.08,371.00 C441.58,371.00 441.98,370.21 441.97,369.25 C441.93,367.12 436.14,373.86 434.30,378.18 C432.91,381.45 433.22,381.65 435.98,379.28 ZM 90.00 402.33 C90.00,400.26 87.15,397.00 85.35,397.00 C83.68,397.00 83.66,397.86 85.25,401.29 C86.62,404.25 90.00,404.99 90.00,402.33 ZM 98.96 412.25 C98.83,409.51 90.98,403.62 91.02,406.28 C91.04,407.96 92.07,409.25 95.00,411.21 C97.75,413.07 99.02,413.40 98.96,412.25 ZM 41.73 176.73 C42.79,174.94 43.95,171.99 44.31,170.18 C44.92,167.17 44.83,167.02 43.39,168.47 C41.50,170.35 37.82,180.00 38.99,180.00 C39.44,180.00 40.67,178.53 41.73,176.73 ZM 460.00 163.21 C460.00,161.57 457.21,158.00 455.93,158.00 C455.08,158.00 455.32,161.36 456.43,164.80 C457.02,166.65 457.45,166.87 458.58,165.93 C459.36,165.28 460.00,164.06 460.00,163.21 ZM 377.96 134.07 C379.44,131.31 379.25,130.00 377.36,130.00 C375.58,130.00 373.08,132.74 373.03,134.75 C372.98,136.73 376.82,136.20 377.96,134.07 ZM 176.25 41.61 C178.68,39.76 178.44,39.00 175.43,39.00 C172.46,39.00 169.00,40.63 169.00,42.04 C169.00,43.46 174.22,43.15 176.25,41.61 ZM 357.00 449.01 C357.27,448.62 358.55,447.75 359.84,447.07 C363.75,445.01 361.42,444.68 356.31,446.57 C352.30,448.06 351.12,448.47 351.05,449.02 C351.03,449.24 351.18,449.49 351.40,449.84 C351.43,449.88 351.46,449.93 351.48,449.97 C352.17,451.08 356.03,450.41 357.00,449.01 ZM 102.00 128.50 C102.68,129.32 103.58,130.00 104.00,130.00 C105.46,130.00 107.22,127.01 106.64,125.51 C105.90,123.58 103.60,123.57 102.00,125.50 C101.01,126.70 101.01,127.30 102.00,128.50 ZM 103.42 86.39 C105.12,85.74 105.58,82.47 104.09,81.56 C102.35,80.48 100.00,82.23 100.00,84.61 C100.00,87.08 100.69,87.44 103.42,86.39 ZM 207.06 85.12 C205.54,82.27 203.00,82.39 203.00,85.30 C203.00,88.63 205.03,90.40 206.80,88.62 C207.89,87.54 207.94,86.76 207.06,85.12 ZM 42.41 322.37 C42.75,321.48 42.18,319.39 41.13,317.73 C39.36,314.95 39.18,314.87 38.58,316.75 C37.93,318.79 39.71,324.00 41.05,324.00 C41.46,324.00 42.07,323.27 42.41,322.37 ZM 167.42 456.08 C165.22,453.98 159.00,452.50 159.00,454.07 C159.00,455.28 163.91,457.49 167.11,457.73 C169.31,457.90 169.32,457.87 167.42,456.08 ZM 449.81 358.24 C450.19,354.39 448.68,354.04 446.44,357.46 C444.64,360.19 445.32,362.28 447.84,361.80 C448.89,361.60 449.61,360.30 449.81,358.24 ZM 196.00 465.12 C196.00,464.01 192.43,463.02 188.50,463.05 C185.65,463.06 185.59,463.14 187.44,464.53 C189.54,466.12 196.00,466.56 196.00,465.12 ZM 353.32 50.34 C354.46,49.20 351.86,47.00 349.38,47.00 C346.76,47.00 346.36,47.96 348.20,49.80 C349.50,51.10 352.27,51.40 353.32,50.34 ZM 389.92 190.35 C389.23,189.06 388.29,188.00 387.83,188.00 C386.47,188.00 386.88,190.88 388.72,194.30 C390.39,197.40 390.45,197.43 390.81,195.10 C391.01,193.78 390.61,191.64 389.92,190.35 ZM 464.47 324.05 C465.31,322.43 465.99,320.29 465.97,319.30 C465.91,316.42 462.00,321.66 462.00,324.61 C462.00,327.77 462.63,327.62 464.47,324.05 ZM 113.00 424.07 C113.00,422.66 110.04,420.00 108.46,420.00 C106.91,420.00 107.59,422.98 109.43,424.23 C110.94,425.27 113.00,425.18 113.00,424.07 ZM 361.63 53.21 C361.30,52.68 360.12,52.00 359.02,51.71 C357.54,51.33 357.00,51.67 357.00,53.02 C357.00,54.03 357.79,55.03 358.75,55.25 C360.83,55.73 362.47,54.57 361.63,53.21 ZM 81.56 392.18 C80.93,390.20 77.00,388.40 77.00,390.09 C77.00,391.34 81.05,395.29 81.67,394.66 C81.95,394.38 81.90,393.27 81.56,392.18 ZM 70.43 375.67 C69.67,373.70 67.00,373.42 67.00,375.30 C67.00,377.16 69.25,379.15 70.23,378.17 C70.69,377.71 70.78,376.58 70.43,375.67 ZM 65.83 129.16 C66.12,127.10 65.93,126.97 64.08,127.96 C61.53,129.32 61.27,132.29 63.75,131.81 C64.71,131.63 65.65,130.44 65.83,129.16 ZM 425.42 392.36 C425.76,391.45 425.83,390.50 425.57,390.23 C424.64,389.30 422.00,390.96 422.00,392.47 C422.00,394.52 424.62,394.43 425.42,392.36 ZM 410.00 409.00 C410.91,407.30 410.76,407.00 409.04,407.00 C407.67,407.00 407.00,407.66 407.00,409.00 C407.00,410.10 407.43,411.00 407.96,411.00 C408.50,411.00 409.41,410.10 410.00,409.00 ZM 429.00 112.12 C429.00,110.86 426.06,108.60 425.35,109.31 C424.33,110.34 425.86,113.00 427.47,113.00 C428.31,113.00 429.00,112.61 429.00,112.12 ZM 401.93 417.59 C402.73,416.62 402.77,415.97 402.05,415.53 C400.65,414.67 399.00,415.77 399.00,417.56 C399.00,419.40 400.42,419.41 401.93,417.59 ZM 47.98 161.81 C47.99,160.88 47.55,159.84 47.00,159.50 C46.40,159.13 46.01,160.40 46.02,162.69 C46.03,165.52 46.28,166.11 47.00,165.00 C47.53,164.18 47.98,162.74 47.98,161.81 ZM 137.00 440.11 C137.00,439.19 134.63,438.00 132.80,438.00 C132.17,438.00 132.25,438.59 133.00,439.50 C134.36,441.14 137.00,441.54 137.00,440.11 ZM 75.00 384.56 C75.00,382.97 73.19,381.48 72.31,382.36 C71.49,383.18 72.77,386.00 73.97,386.00 C74.54,386.00 75.00,385.35 75.00,384.56 ZM 105.65 417.54 C105.33,416.69 104.60,416.00 104.03,416.00 C102.57,416.00 102.75,418.74 104.25,419.28 C105.95,419.89 106.36,419.38 105.65,417.54 ZM 80.30 110.51 C80.41,109.97 79.71,109.38 78.75,109.19 C77.66,108.98 77.00,109.47 77.00,110.50 C77.00,112.24 79.96,112.25 80.30,110.51 ZM 56.87 356.39 C55.97,354.19 55.59,353.91 55.28,355.22 C55.05,356.17 55.46,357.58 56.18,358.37 C58.03,360.38 58.25,359.75 56.87,356.39 ZM 49.99 154.02 C50.85,152.41 50.77,152.15 49.52,152.63 C48.69,152.95 48.00,153.84 48.00,154.61 C48.00,156.56 48.75,156.34 49.99,154.02 ZM 79.59 251.26 C79.91,251.58 79.98,252.67 79.74,253.67 C79.33,255.42 79.27,255.42 78.53,253.71 C77.75,251.90 78.50,250.16 79.59,251.26 ZM 425.00 252.50 C425.00,253.32 424.55,254.00 424.00,254.00 C423.45,254.00 423.00,253.32 423.00,252.50 C423.00,251.68 423.45,251.00 424.00,251.00 C424.55,251.00 425.00,251.68 425.00,252.50 ZM 440.50 252.00 C440.84,252.55 440.42,253.00 439.56,253.00 C438.70,253.00 438.00,252.55 438.00,252.00 C438.00,251.45 438.42,251.00 438.94,251.00 C439.46,251.00 440.16,251.45 440.50,252.00 Z" fill="rgb(52,58,117)"/>
<path d="M 420.69 264.81 C416.93,268.46 416.69,268.53 415.00,266.50 C414.25,265.59 414.17,265.00 414.79,265.00 C415.37,265.00 416.00,265.50 416.20,266.11 C416.44,266.83 417.01,266.70 417.80,265.74 C418.79,264.55 418.68,264.00 417.26,262.88 C415.66,261.63 415.63,261.66 416.87,263.25 C418.37,265.16 417.38,265.55 415.00,263.98 C413.67,263.11 413.67,262.89 415.00,262.02 C416.92,260.76 417.73,260.75 418.50,262.00 C418.84,262.55 419.61,263.00 420.21,263.00 C420.82,263.00 420.57,262.18 419.65,261.17 C418.74,260.17 418.00,258.82 418.00,258.17 C418.00,257.53 416.99,256.97 415.75,256.93 C414.51,256.89 412.60,256.44 411.50,255.92 C409.87,255.16 410.10,255.05 412.74,255.32 C414.53,255.50 415.83,255.50 415.64,255.31 C415.45,255.12 416.81,253.37 418.65,251.41 C420.49,249.46 422.04,246.88 422.10,245.68 C422.19,243.68 422.26,243.70 422.95,246.00 C423.68,248.45 423.72,248.42 424.76,245.00 L 425.82 241.50 L 425.91 244.85 C425.97,247.25 426.96,249.16 429.37,251.57 C431.22,253.42 432.57,255.09 432.37,255.29 C432.18,255.49 433.47,255.52 435.26,255.35 L 438.50 255.06 L 434.86 256.28 C432.86,256.95 430.33,258.60 429.24,259.95 C427.50,262.10 427.44,262.58 428.72,263.86 C429.97,265.12 430.31,265.12 431.08,263.91 C431.74,262.87 431.97,262.83 431.98,263.78 C432.01,266.20 428.93,266.28 426.44,263.94 L 423.98 261.63 ZM 76.00 260.50 C76.79,261.45 76.85,262.00 76.18,262.00 C75.03,262.00 73.54,260.07 73.52,258.55 C73.51,258.02 71.47,257.06 69.00,256.40 C65.82,255.55 65.24,255.17 67.03,255.10 C72.64,254.88 76.89,250.17 77.05,244.00 C77.17,239.69 77.21,239.62 78.10,242.50 C78.61,244.15 78.80,246.47 78.52,247.65 C78.20,248.99 78.57,250.01 79.51,250.36 C80.33,250.68 81.00,250.50 81.00,249.97 C81.00,249.44 80.52,249.00 79.94,249.00 C79.36,249.00 79.22,248.45 79.63,247.78 C80.05,247.12 80.71,244.98 81.11,243.03 C81.81,239.66 81.83,239.71 81.67,244.00 C81.56,246.94 82.02,248.94 83.00,249.76 C84.33,250.89 84.33,251.00 83.00,250.76 C81.93,250.58 81.49,251.41 81.46,253.64 C81.43,256.39 81.68,256.68 83.46,255.98 C84.58,255.55 85.39,254.70 85.25,254.10 C85.23,254.02 85.21,253.94 85.20,253.87 C85.12,253.53 85.06,253.31 85.15,253.20 C85.34,252.97 86.15,253.25 88.63,254.12 C88.88,254.21 89.15,254.30 89.43,254.40 L 93.35 255.76 L 89.93 256.50 C88.04,256.90 85.96,257.67 85.29,258.20 C84.63,258.74 83.65,258.90 83.12,258.57 C82.58,258.24 81.86,258.88 81.50,259.99 C80.76,262.32 78.00,262.72 78.00,260.50 C78.00,259.67 77.27,259.00 76.38,259.00 C75.05,259.00 74.98,259.27 76.00,260.50 ZM 92.00 266.52 C92.00,267.30 91.16,268.38 90.13,268.93 C88.63,269.73 87.49,269.27 84.40,266.60 C81.03,263.69 80.71,263.05 81.89,261.63 C83.72,259.43 85.61,259.54 83.87,261.75 C82.63,263.33 82.67,263.37 84.24,262.14 C85.20,261.39 85.68,260.26 85.32,259.64 C84.95,259.01 85.64,259.36 86.84,260.41 C88.89,262.21 88.92,262.43 87.33,264.19 C86.03,265.62 85.92,266.32 86.83,267.23 C87.74,268.14 88.36,268.02 89.51,266.71 C90.33,265.77 90.47,265.46 89.80,266.00 C89.14,266.55 88.13,266.99 87.55,266.97 C86.97,266.95 87.35,266.29 88.40,265.50 C90.49,263.92 92.00,264.35 92.00,266.52 ZM 74.70 266.80 C71.63,269.78 68.10,271.26 69.51,268.98 C69.86,268.42 70.56,268.23 71.07,268.54 C72.43,269.38 72.21,267.63 70.75,266.00 C69.69,264.81 69.76,264.79 71.25,265.92 C72.72,267.03 73.00,267.01 73.00,265.82 C73.00,265.04 72.50,263.90 71.89,263.29 C69.92,261.32 71.96,259.66 74.04,261.53 C75.05,262.45 76.35,262.90 76.94,262.54 C79.22,261.13 77.83,263.77 74.70,266.80 ZM 435.57 265.07 C437.31,267.00 437.31,267.14 435.37,269.07 C433.46,270.99 433.31,271.00 431.77,269.29 C430.29,267.64 430.30,267.32 431.96,265.29 C433.75,263.08 433.76,263.08 435.57,265.07 ZM 419.06 255.90 C422.69,257.35 422.91,257.24 422.37,254.27 C421.69,250.48 421.25,250.30 418.79,252.77 L 416.63 254.93 ZM 426.17 254.25 C427.12,256.09 429.51,256.60 430.41,255.15 C430.70,254.68 429.88,253.29 428.58,252.07 C425.99,249.64 424.49,250.99 426.17,254.25 ZM 75.11 255.92 C76.43,256.44 77.50,256.90 77.50,256.93 L 77.50 256.94 C77.50,256.94 77.60,255.63 77.71,254.00 C77.95,250.51 77.02,250.21 74.52,252.98 C72.78,254.90 72.80,254.99 75.11,255.92 ZM 416.00 269.15 C416.00,270.39 414.64,270.19 412.54,268.65 C411.46,267.86 411.01,266.80 411.45,266.09 C412.01,265.17 412.67,265.30 414.10,266.59 C415.14,267.54 416.00,268.69 416.00,269.15 ZM 419.88 260.36 C421.65,262.48 422.25,262.43 423.77,260.00 C424.51,258.81 424.61,258.00 424.01,258.00 C423.45,258.00 423.00,258.48 423.00,259.07 C423.00,259.72 422.12,259.86 420.76,259.42 C418.76,258.79 418.67,258.89 419.88,260.36 ZM 79.59 251.26 C78.50,250.16 77.75,251.90 78.53,253.71 C79.27,255.42 79.33,255.42 79.74,253.67 C79.98,252.67 79.91,251.58 79.59,251.26 ZM 85.00 263.50 C84.31,264.34 84.20,265.00 84.76,265.00 C85.31,265.00 86.32,264.33 87.00,263.50 C87.69,262.66 87.80,262.00 87.24,262.00 C86.69,262.00 85.68,262.67 85.00,263.50 ZM 425.00 252.50 C425.00,251.68 424.55,251.00 424.00,251.00 C423.45,251.00 423.00,251.68 423.00,252.50 C423.00,253.32 423.45,254.00 424.00,254.00 C424.55,254.00 425.00,253.32 425.00,252.50 ZM 425.00 261.11 C425.00,262.39 425.58,262.21 427.02,260.48 C428.08,259.20 428.01,259.06 426.64,259.58 C425.74,259.93 425.00,260.62 425.00,261.11 ZM 432.00 267.62 C432.00,268.45 432.82,267.92 434.13,266.25 C435.37,264.66 435.34,264.63 433.75,265.87 C432.79,266.63 432.00,267.41 432.00,267.62 Z" fill="rgb(161,164,187)"/>
<path d="M 0.00 244.50 L 0.00 0.00 L 255.00 0.00 L 510.00 0.00 L 510.00 244.50 L 510.00 489.00 L 255.00 489.00 L 0.00 489.00 L 0.00 244.50 ZM 278.50 476.47 C330.51,470.40 380.93,445.51 415.47,408.85 C458.35,363.35 479.38,310.77 479.24,249.50 C479.18,226.28 477.07,210.05 471.47,189.60 C460.72,150.38 441.75,117.71 413.03,88.95 C391.73,67.62 370.32,53.02 343.00,41.19 C312.58,28.02 286.83,22.77 252.50,22.72 C207.56,22.66 170.48,33.35 130.00,58.05 C110.44,69.98 85.67,92.76 71.89,111.50 C60.71,126.70 60.00,127.70 60.00,128.33 C60.00,128.68 58.35,131.54 56.34,134.68 C48.68,146.65 38.03,171.72 33.56,188.26 C27.31,211.45 25.56,224.99 25.60,250.00 C25.65,275.29 27.40,288.82 33.63,312.00 C38.38,329.70 50.15,356.07 60.85,373.00 C73.43,392.90 96.92,418.36 115.04,431.75 C163.53,467.55 220.74,483.20 278.50,476.47 ZM 230.72 468.95 C181.87,463.85 133.89,440.96 98.94,406.09 C79.25,386.44 67.40,369.99 55.45,345.70 C22.30,278.34 26.44,198.41 66.40,134.00 C80.54,111.20 104.59,85.67 125.75,71.00 C154.07,51.36 182.47,39.58 216.50,33.36 C230.73,30.76 274.17,30.72 288.00,33.29 C326.12,40.40 353.93,52.42 384.53,75.02 C393.49,81.64 395.50,83.42 408.07,95.96 C435.29,123.09 454.75,157.34 464.39,195.03 C469.33,214.36 471.00,228.26 471.00,250.04 C471.00,273.37 468.68,291.08 463.13,310.15 C451.43,350.35 427.47,388.23 397.38,414.06 C378.81,430.00 367.26,437.87 349.12,446.95 C328.92,457.06 309.68,463.35 287.50,467.09 C273.63,469.43 244.43,470.39 230.72,468.95 ZM 269.00 452.99 C304.65,449.90 337.27,438.44 365.96,418.92 C375.61,412.35 394.39,396.66 399.74,390.69 C419.35,368.80 434.45,344.09 443.22,319.50 C447.04,308.81 452.00,290.30 452.00,286.74 C452.00,285.08 450.12,284.99 422.32,285.24 L 392.64 285.50 L 389.03 296.00 C384.51,309.11 375.56,326.44 368.29,336.11 C351.90,357.95 327.41,376.46 302.53,385.83 C279.66,394.44 253.36,397.11 230.50,393.16 C198.95,387.71 173.37,374.49 150.98,352.05 C133.64,334.67 121.96,315.87 114.90,294.00 L 112.16 285.50 L 82.58 285.24 L 53.00 284.97 L 53.01 287.74 C53.02,292.45 58.57,313.02 62.51,323.00 C72.44,348.10 84.98,368.11 103.45,388.30 C145.42,434.19 207.23,458.34 269.00,452.99 ZM 272.29 370.51 C310.63,363.82 344.53,338.74 361.90,304.22 C381.12,266.01 378.16,218.06 354.38,182.26 C343.14,165.34 324.80,148.99 306.97,140.00 C280.47,126.63 243.26,123.92 214.00,133.22 C171.33,146.79 138.98,183.37 130.51,227.63 C128.58,237.67 128.55,259.93 130.44,270.67 C138.89,318.67 176.80,358.38 224.22,368.90 C236.89,371.71 236.86,371.71 251.12,371.86 C258.46,371.94 267.31,371.38 272.29,370.51 ZM 435.57 265.07 C433.76,263.08 433.75,263.08 431.96,265.29 C430.30,267.32 430.29,267.64 431.77,269.29 C433.31,271.00 433.46,270.99 435.37,269.07 C437.31,267.14 437.31,267.00 435.57,265.07 ZM 74.70 266.80 C77.83,263.77 79.22,261.13 76.94,262.54 C76.35,262.90 75.05,262.45 74.04,261.53 C71.96,259.66 69.92,261.32 71.89,263.29 C72.50,263.90 73.00,265.04 73.00,265.82 C73.00,267.01 72.72,267.03 71.25,265.92 C69.76,264.79 69.69,264.81 70.75,266.00 C72.21,267.63 72.43,269.38 71.07,268.54 C70.56,268.23 69.86,268.42 69.51,268.98 C68.10,271.26 71.63,269.78 74.70,266.80 ZM 92.00 266.52 C92.00,264.35 90.49,263.92 88.40,265.50 C87.35,266.29 86.97,266.95 87.55,266.97 C88.13,266.99 89.14,266.55 89.80,266.00 C90.47,265.46 90.33,265.77 89.51,266.71 C88.36,268.02 87.74,268.14 86.83,267.23 C85.92,266.32 86.03,265.62 87.33,264.19 C88.92,262.43 88.89,262.21 86.84,260.41 C85.64,259.36 84.95,259.01 85.32,259.64 C85.68,260.26 85.20,261.39 84.24,262.14 C82.67,263.37 82.63,263.33 83.87,261.75 C85.61,259.54 83.72,259.43 81.89,261.63 C80.71,263.05 81.03,263.69 84.40,266.60 C87.49,269.27 88.63,269.73 90.13,268.93 C91.16,268.38 92.00,267.30 92.00,266.52 ZM 416.00 269.15 C416.00,268.69 415.14,267.54 414.10,266.59 C412.67,265.30 412.01,265.17 411.45,266.09 C411.01,266.80 411.46,267.86 412.54,268.65 C414.64,270.19 416.00,270.39 416.00,269.15 ZM 420.69 264.81 L 423.98 261.63 L 426.44 263.94 C428.93,266.28 432.01,266.20 431.98,263.78 C431.97,262.83 431.74,262.87 431.08,263.91 C430.31,265.12 429.97,265.12 428.72,263.86 C427.44,262.58 427.50,262.10 429.24,259.95 C430.33,258.60 432.86,256.95 434.86,256.28 L 438.50 255.06 L 435.26 255.35 C433.47,255.52 432.18,255.49 432.37,255.29 C432.57,255.09 431.22,253.42 429.37,251.57 C426.96,249.16 425.97,247.25 425.91,244.85 L 425.82 241.50 L 424.76 245.00 C423.72,248.42 423.68,248.45 422.95,246.00 C422.26,243.70 422.19,243.68 422.10,245.68 C422.04,246.88 420.49,249.46 418.65,251.41 C416.81,253.37 415.45,255.12 415.64,255.31 C415.83,255.50 414.53,255.50 412.74,255.32 C410.10,255.05 409.87,255.16 411.50,255.92 C412.60,256.44 414.51,256.89 415.75,256.93 C416.99,256.97 418.00,257.53 418.00,258.17 C418.00,258.82 418.74,260.17 419.65,261.17 C420.57,262.18 420.82,263.00 420.21,263.00 C419.61,263.00 418.84,262.55 418.50,262.00 C417.73,260.75 416.92,260.76 415.00,262.02 C413.67,262.89 413.67,263.11 415.00,263.98 C417.38,265.55 418.37,265.16 416.87,263.25 C415.63,261.66 415.66,261.63 417.26,262.88 C418.68,264.00 418.79,264.55 417.80,265.74 C417.01,266.70 416.44,266.83 416.20,266.11 C416.00,265.50 415.37,265.00 414.79,265.00 C414.17,265.00 414.25,265.59 415.00,266.50 C416.69,268.53 416.93,268.46 420.69,264.81 ZM 76.00 260.50 C74.98,259.27 75.05,259.00 76.38,259.00 C77.27,259.00 78.00,259.67 78.00,260.50 C78.00,262.72 80.76,262.32 81.50,259.99 C81.86,258.88 82.58,258.24 83.12,258.57 C83.65,258.90 84.63,258.74 85.29,258.20 C85.96,257.67 88.04,256.90 89.93,256.50 L 93.35 255.76 L 89.43 254.40 C84.67,252.74 84.95,252.76 85.25,254.10 C85.39,254.70 84.58,255.55 83.46,255.98 C81.68,256.68 81.43,256.39 81.46,253.64 C81.49,251.41 81.93,250.58 83.00,250.76 C84.33,251.00 84.33,250.89 83.00,249.76 C82.02,248.94 81.56,246.94 81.67,244.00 C81.83,239.71 81.81,239.66 81.11,243.03 C80.71,244.98 80.05,247.12 79.63,247.78 C79.22,248.45 79.36,249.00 79.94,249.00 C80.52,249.00 81.00,249.44 81.00,249.97 C81.00,250.50 80.33,250.68 79.51,250.36 C78.57,250.01 78.20,248.99 78.52,247.65 C78.80,246.47 78.61,244.15 78.10,242.50 C77.21,239.62 77.17,239.69 77.05,244.00 C76.89,250.17 72.64,254.88 67.03,255.10 C65.24,255.17 65.82,255.55 69.00,256.40 C71.47,257.06 73.51,258.02 73.52,258.55 C73.54,260.07 75.03,262.00 76.18,262.00 C76.85,262.00 76.79,261.45 76.00,260.50 ZM 440.50 252.00 C440.16,251.45 439.46,251.00 438.94,251.00 C438.42,251.00 438.00,251.45 438.00,252.00 C438.00,252.55 438.70,253.00 439.56,253.00 C440.42,253.00 440.84,252.55 440.50,252.00 ZM 114.97 206.00 C127.65,165.54 160.33,130.77 200.08,115.41 C205.02,113.51 213.89,110.73 219.78,109.24 C229.76,106.73 231.99,106.54 252.00,106.52 C269.15,106.50 275.17,106.87 281.77,108.32 C310.01,114.54 333.73,127.61 354.54,148.45 C371.05,164.98 381.34,181.58 388.91,203.89 L 392.51 214.50 L 421.78 214.77 C445.20,214.98 451.15,214.77 451.55,213.72 C452.35,211.64 449.28,198.57 444.93,185.50 C423.87,122.31 371.96,72.20 309.29,54.58 C289.20,48.93 278.37,47.60 252.50,47.60 C232.10,47.60 226.78,47.92 217.00,49.76 C172.19,58.20 137.43,76.83 106.36,109.09 C79.66,136.80 61.73,170.01 53.94,206.16 C51.89,215.67 49.86,215.07 83.13,214.77 L 112.30 214.50 L 114.97 206.00 ZM 234.50 359.32 C215.64,355.13 201.46,349.43 188.91,340.97 C180.17,335.10 166.04,321.14 160.13,312.57 C146.59,292.93 141.00,274.50 141.00,249.50 C141.00,234.06 142.17,226.46 146.63,212.96 C149.33,204.80 157.48,189.38 161.28,185.25 C163.78,182.53 168.52,182.33 177.91,184.54 C186.74,186.62 193.27,190.42 199.25,196.96 C214.52,213.64 218.18,241.39 211.36,288.91 C208.72,307.37 208.72,315.51 211.37,325.50 C214.53,337.38 222.52,348.15 233.26,354.98 C236.43,357.00 238.71,358.95 238.34,359.32 C237.97,359.70 237.40,359.95 237.08,359.88 C236.76,359.82 235.60,359.57 234.50,359.32 ZM 258.09 357.93 C239.58,354.65 224.29,343.84 219.12,330.37 C215.16,320.06 214.46,311.29 216.42,296.50 C221.31,259.66 221.84,248.66 219.53,232.50 C216.69,212.62 210.79,199.59 200.28,189.97 C193.47,183.74 186.14,180.21 176.56,178.57 C172.75,177.92 169.47,176.90 169.27,176.31 C168.79,174.86 182.41,162.71 190.41,157.45 C210.39,144.33 232.36,138.31 256.53,139.34 C272.67,140.02 273.10,140.16 271.91,144.32 C271.41,146.06 271.00,150.73 271.00,154.70 C271.00,177.73 289.54,203.36 323.50,227.28 C331.75,233.09 340.01,239.33 341.85,241.14 C363.54,262.46 360.05,296.70 333.30,325.06 C312.24,347.39 279.47,361.71 258.09,357.93 ZM 360.70 263.27 C360.46,262.84 359.69,260.70 358.99,258.50 C354.96,245.76 346.41,235.94 328.93,223.95 C296.23,201.53 278.71,179.13 277.26,157.89 C276.56,147.81 277.47,143.00 280.04,143.00 C283.11,143.00 293.76,146.91 302.50,151.25 C316.41,158.16 326.48,166.19 337.00,178.75 C349.22,193.34 356.97,209.11 360.96,227.56 C363.92,241.22 363.72,268.55 360.70,263.27 ZM 432.00 267.62 C432.00,267.41 432.79,266.63 433.75,265.87 C435.34,264.63 435.37,264.66 434.13,266.25 C432.82,267.92 432.00,268.45 432.00,267.62 ZM 85.00 263.50 C85.68,262.67 86.69,262.00 87.24,262.00 C87.80,262.00 87.69,262.66 87.00,263.50 C86.32,264.33 85.31,265.00 84.76,265.00 C84.20,265.00 84.31,264.34 85.00,263.50 ZM 419.88 260.36 C418.67,258.89 418.76,258.79 420.76,259.42 C422.12,259.86 423.00,259.72 423.00,259.07 C423.00,258.48 423.45,258.00 424.01,258.00 C424.61,258.00 424.51,258.81 423.77,260.00 C422.25,262.43 421.65,262.48 419.88,260.36 ZM 425.00 261.11 C425.00,260.62 425.74,259.93 426.64,259.58 C428.01,259.06 428.08,259.20 427.02,260.48 C425.58,262.21 425.00,262.39 425.00,261.11 ZM 419.06 255.90 L 416.63 254.93 L 418.79 252.77 C421.25,250.30 421.69,250.48 422.37,254.27 C422.91,257.24 422.69,257.35 419.06,255.90 ZM 426.17 254.25 C424.49,250.99 425.99,249.64 428.58,252.07 C429.88,253.29 430.70,254.68 430.41,255.15 C429.51,256.60 427.12,256.09 426.17,254.25 ZM 75.11 255.92 C72.80,254.99 72.78,254.90 74.52,252.98 C77.02,250.21 77.95,250.51 77.71,254.00 C77.59,255.65 77.50,256.97 77.50,256.93 C77.50,256.90 76.43,256.44 75.11,255.92 ZM 97.50 199.80 C85.46,194.73 75.00,189.71 75.00,189.00 C75.00,188.62 79.91,187.28 85.91,186.02 C91.91,184.76 97.36,183.39 98.02,182.98 C98.88,182.46 97.47,179.09 93.17,171.40 C89.84,165.43 87.29,160.37 87.51,160.16 C88.32,159.35 117.00,172.52 117.00,173.69 C117.00,174.36 116.49,176.03 115.86,177.41 C114.81,179.72 114.53,179.81 112.11,178.58 C110.67,177.85 108.49,176.94 107.26,176.56 C105.38,175.98 105.12,176.17 105.68,177.68 C106.05,178.68 107.42,181.20 108.71,183.29 C110.01,185.37 110.84,187.46 110.55,187.92 C110.26,188.39 108.11,189.06 105.76,189.41 C98.59,190.50 98.02,191.55 103.21,194.07 C107.59,196.20 107.75,196.42 106.80,199.15 C106.25,200.72 105.51,202.17 105.15,202.37 C104.79,202.57 101.35,201.41 97.50,199.80 ZM 395.66 196.76 C392.09,188.68 390.69,183.90 391.64,183.04 C392.90,181.90 418.54,172.00 420.24,172.00 C421.78,172.00 424.46,176.84 423.49,177.88 C423.17,178.22 417.87,180.54 411.70,183.03 C405.54,185.52 400.58,188.00 400.69,188.53 C400.79,189.06 401.67,191.63 402.65,194.24 C404.53,199.25 404.19,200.26 400.27,201.45 C398.30,202.04 397.74,201.47 395.66,196.76 ZM 382.10 169.06 C379.29,164.69 377.00,160.70 377.00,160.19 C377.00,159.13 402.26,143.00 403.92,143.00 C404.87,143.00 413.42,155.34 414.61,158.42 C414.85,159.04 413.69,160.34 412.04,161.32 L 409.04 163.09 L 405.93 158.05 C402.71,152.81 401.10,151.97 399.02,154.47 C398.04,155.66 398.24,156.65 400.06,159.60 L 402.32 163.25 L 399.91 165.10 C396.63,167.62 396.24,167.52 393.87,163.50 C391.72,159.87 391.22,159.59 388.58,160.61 C386.34,161.47 386.62,162.89 390.02,167.90 C391.66,170.32 393.00,172.59 393.00,172.93 C393.00,173.28 391.69,174.34 390.10,175.28 L 387.19 177.00 L 382.10 169.06 ZM 112.00 159.88 C105.69,157.36 102.00,151.42 102.00,143.80 C102.01,137.57 104.42,132.93 109.16,130.05 C117.11,125.22 126.19,126.74 131.60,133.83 C134.55,137.70 135.00,139.04 135.00,144.00 C135.00,150.56 132.61,155.00 127.08,158.73 C123.43,161.18 116.59,161.71 112.00,159.88 ZM 124.98 150.44 C128.65,146.82 128.45,140.65 124.55,137.29 C122.16,135.24 120.92,134.88 117.67,135.32 C112.32,136.04 109.55,138.97 109.55,143.93 C109.55,152.74 118.71,156.61 124.98,150.44 ZM 366.49 145.65 C363.62,144.31 360.23,141.68 358.57,139.50 L 355.66 135.69 L 367.08 124.89 C373.36,118.95 378.98,114.07 379.56,114.04 C380.15,114.02 381.79,115.24 383.21,116.75 C390.05,124.02 391.64,130.87 388.11,137.79 C385.94,142.03 383.84,144.08 379.30,146.38 C375.00,148.56 372.43,148.41 366.49,145.65 ZM 378.06 138.97 C380.96,137.42 383.23,132.32 382.50,129.00 C381.26,123.37 379.78,123.55 372.53,130.19 L 365.77 136.39 L 367.99 138.20 C370.46,140.20 375.10,140.55 378.06,138.97 ZM 95.36 135.49 C95.01,134.57 95.42,133.16 96.29,132.29 C98.41,130.16 101.23,131.38 100.82,134.25 C100.43,137.02 96.31,137.96 95.36,135.49 ZM 144.34 134.25 C143.22,132.74 138.60,127.07 134.07,121.65 L 125.84 111.80 L 128.09 109.40 C129.33,108.08 130.63,107.00 130.98,107.00 C131.32,107.00 135.12,111.28 139.42,116.50 C143.72,121.72 147.80,126.00 148.50,126.00 C149.19,126.00 150.33,125.30 151.04,124.45 C151.74,123.60 153.67,121.95 155.31,120.78 L 158.30 118.65 L 160.15 120.94 C161.17,122.19 162.00,123.60 162.00,124.06 C162.00,124.96 148.05,137.00 147.00,137.00 C146.66,137.00 145.46,135.76 144.34,134.25 ZM 347.25 129.32 C345.69,128.24 345.00,126.75 345.00,124.48 C345.00,121.75 344.37,120.82 341.25,118.98 C338.16,117.15 337.01,116.94 334.72,117.81 C332.36,118.69 331.53,118.50 329.22,116.51 C327.72,115.22 326.73,113.96 327.00,113.70 C328.65,112.15 355.55,96.00 356.49,96.00 C357.67,96.00 357.51,97.21 353.25,120.43 C352.25,125.89 350.99,130.48 350.46,130.62 C349.93,130.77 348.49,130.18 347.25,129.32 ZM 102.00 128.50 C101.01,127.30 101.01,126.70 102.00,125.50 C103.60,123.57 105.90,123.58 106.64,125.51 C107.22,127.01 105.46,130.00 104.00,130.00 C103.58,130.00 102.68,129.32 102.00,128.50 ZM 159.78 105.75 C155.58,97.91 152.60,91.34 153.16,91.14 C154.20,90.77 168.54,94.40 172.88,96.13 C174.19,96.65 175.51,96.82 175.83,96.51 C176.14,96.19 174.96,93.02 173.20,89.45 C171.44,85.88 170.00,82.59 170.00,82.14 C170.00,81.69 171.22,80.77 172.71,80.09 C175.05,79.02 175.60,79.10 176.75,80.68 C178.71,83.35 191.00,106.88 191.00,107.95 C191.00,108.45 186.00,107.52 179.88,105.88 C173.77,104.24 168.49,103.18 168.15,103.52 C167.80,103.86 168.99,106.92 170.78,110.32 L 174.04 116.50 L 171.91 118.25 C170.74,119.21 169.25,120.00 168.60,120.00 C167.95,120.00 163.98,113.59 159.78,105.75 ZM 307.72 106.41 C306.19,105.58 305.10,104.59 305.29,104.20 C305.48,103.82 308.50,97.31 312.00,89.75 C316.82,79.32 318.81,76.00 320.21,76.00 C323.17,76.00 331.61,80.69 333.90,83.60 C336.60,87.03 336.66,93.40 334.04,97.70 C331.69,101.56 325.74,103.61 321.53,102.01 C317.07,100.32 315.41,100.82 313.43,104.50 C311.29,108.48 311.44,108.43 307.72,106.41 ZM 327.80 93.80 C330.06,91.54 329.18,88.15 325.91,86.45 C323.03,84.96 322.74,84.98 321.48,86.68 C319.12,89.86 319.07,91.94 321.31,93.51 C323.89,95.31 326.19,95.41 327.80,93.80 ZM 197.55 103.75 C196.24,99.53 189.00,74.08 189.00,73.69 C189.00,73.43 192.09,72.46 195.87,71.53 C204.08,69.52 209.15,70.45 213.23,74.73 C216.62,78.29 218.00,82.01 218.00,87.63 C218.00,95.36 213.45,101.20 205.61,103.52 C199.54,105.33 198.05,105.37 197.55,103.75 ZM 208.65 93.25 C210.82,90.91 211.12,89.83 210.70,86.04 C210.11,80.76 207.31,78.00 202.56,78.00 C200.78,78.00 199.07,78.26 198.75,78.58 C198.01,79.32 201.78,93.03 203.19,94.73 C204.74,96.60 205.81,96.31 208.65,93.25 ZM 270.82 97.62 C266.60,97.00 262.83,96.18 262.45,95.80 C261.84,95.18 264.60,67.67 265.63,64.13 C265.91,63.16 266.95,62.94 269.19,63.39 C270.93,63.74 272.49,64.15 272.65,64.32 C272.81,64.48 272.25,69.93 271.40,76.44 C270.50,83.40 270.23,88.63 270.76,89.16 C271.25,89.65 274.00,90.33 276.88,90.67 L 282.10 91.29 L 281.80 94.89 C281.45,99.10 281.27,99.14 270.82,97.62 ZM 225.54 97.06 C224.82,95.90 236.26,63.50 237.39,63.50 C238.52,63.50 254.99,94.21 254.38,95.20 C253.36,96.85 248.02,96.01 246.77,94.00 C245.78,92.41 244.44,92.00 240.24,92.00 C235.62,92.00 234.82,92.31 233.86,94.42 C232.46,97.48 226.89,99.25 225.54,97.06 Z" fill="rgb(253,254,254)"/>
</g>
</svg>