<?xml version="1.0" encoding="UTF-8"?>
<svg version="1.1" xmlns="http://www.w3.org/2000/svg" width="96" height="96">
<path d="M0 0 C1.32 0 2.64 0 4 0 C4 0.99 4 1.98 4 3 C5.32 3 6.64 3 8 3 C7.44271087 6.34373475 6.64826111 9.03312999 5 12 C5.4125 11.505 5.825 11.01 6.25 10.5 C8 9 8 9 12 9 C11.48118887 13.1724106 10.28848726 15.25416821 7.4375 18.3125 C6.79683594 19.00988281 6.15617187 19.70726563 5.49609375 20.42578125 C5.00238281 20.94527344 4.50867187 21.46476562 4 22 C4.99 22 5.98 22 7 22 C7.66 21.01 8.32 20.02 9 19 C10.32 19 11.64 19 13 19 C13 21.31 13 23.62 13 26 C13.66 26 14.32 26 15 26 C16.485 20.555 16.485 20.555 18 15 C19.65 15 21.3 15 23 15 C22.67 17.31 22.34 19.62 22 22 C22.66 22 23.32 22 24 22 C24.66 19.69 25.32 17.38 26 15 C28.92879371 15.62759865 31.36095629 16.58622659 34 18 C34 20.64 34 23.28 34 26 C31.23735711 26.59732819 28.83967231 27 26 27 C28.475 27.99 28.475 27.99 31 29 C31 30.32 31 31.64 31 33 C26.21521178 33.09764874 21.72314313 32.77112541 17 32 C16.67 32.99 16.34 33.98 16 35 C17.98 35 19.96 35 22 35 C22 36.32 22 37.64 22 39 C20.02 39 18.04 39 16 39 C16.33 39.99 16.66 40.98 17 42 C21.62 41.67 26.24 41.34 31 41 C31 42.32 31 43.64 31 45 C29.35 45.66 27.7 46.32 26 47 C28.31 47 30.62 47 33 47 C33.9392247 50.65254051 34.2652614 53.39887139 33 57 C31.1875 58.375 31.1875 58.375 29 59 C26.75 58.625 26.75 58.625 25 58 C24.505 55.03 24.505 55.03 24 52 C23.34 52 22.68 52 22 52 C22.495 55.465 22.495 55.465 23 59 C21.35 59 19.7 59 18 59 C17.01 55.37 16.02 51.74 15 48 C14.34 48 13.68 48 13 48 C13 50.31 13 52.62 13 55 C8.25 54.25 8.25 54.25 6 52 C5.34 52 4.68 52 4 52 C4.49371094 52.51949219 4.98742188 53.03898437 5.49609375 53.57421875 C6.13675781 54.27160156 6.77742188 54.96898437 7.4375 55.6875 C8.07558594 56.37199219 8.71367188 57.05648437 9.37109375 57.76171875 C11.16221098 60.22289422 11.62798558 62.00816574 12 65 C7.25 64.25 7.25 64.25 5 62 C5.309375 62.556875 5.61875 63.11375 5.9375 63.6875 C7.05761821 66.12540433 7.56037364 68.36224186 8 71 C6.68 71 5.36 71 4 71 C4 71.99 4 72.98 4 74 C2.68 74 1.36 74 0 74 C0 73.01 0 72.02 0 71 C-1.32 71 -2.64 71 -4 71 C-3.44271087 67.65626525 -2.64826111 64.96687001 -1 62 C-1.4125 62.495 -1.825 62.99 -2.25 63.5 C-4 65 -4 65 -8 65 C-7.48118887 60.8275894 -6.28848726 58.74583179 -3.4375 55.6875 C-2.79683594 54.99011719 -2.15617187 54.29273438 -1.49609375 53.57421875 C-1.00238281 53.05472656 -0.50867188 52.53523438 0 52 C-0.99 52 -1.98 52 -3 52 C-3.66 52.99 -4.32 53.98 -5 55 C-6.32 55 -7.64 55 -9 55 C-9 52.69 -9 50.38 -9 48 C-9.66 48 -10.32 48 -11 48 C-11.99 51.63 -12.98 55.26 -14 59 C-15.65 59 -17.3 59 -19 59 C-18.67 56.69 -18.34 54.38 -18 52 C-18.66 52 -19.32 52 -20 52 C-20.66 54.31 -21.32 56.62 -22 59 C-24.92879371 58.37240135 -27.36095629 57.41377341 -30 56 C-30 53.36 -30 50.72 -30 48 C-27.23735711 47.40267181 -24.83967231 47 -22 47 C-23.65 46.34 -25.3 45.68 -27 45 C-27 43.68 -27 42.36 -27 41 C-22.21521178 40.90235126 -17.72314313 41.22887459 -13 42 C-12.67 41.01 -12.34 40.02 -12 39 C-13.98 39 -15.96 39 -18 39 C-18 37.68 -18 36.36 -18 35 C-16.02 35 -14.04 35 -12 35 C-12.33 34.01 -12.66 33.02 -13 32 C-17.62 32.33 -22.24 32.66 -27 33 C-27 31.68 -27 30.36 -27 29 C-25.35 28.34 -23.7 27.68 -22 27 C-24.31 27 -26.62 27 -29 27 C-29.9392247 23.34745949 -30.2652614 20.60112861 -29 17 C-27.1875 15.625 -27.1875 15.625 -25 15 C-22.75 15.375 -22.75 15.375 -21 16 C-20.67 17.98 -20.34 19.96 -20 22 C-19.34 22 -18.68 22 -18 22 C-18.33 19.69 -18.66 17.38 -19 15 C-17.35 15 -15.7 15 -14 15 C-13.01 18.63 -12.02 22.26 -11 26 C-10.34 26 -9.68 26 -9 26 C-9 23.69 -9 21.38 -9 19 C-4.25 19.75 -4.25 19.75 -2 22 C-1.34 22 -0.68 22 0 22 C-0.49371094 21.48050781 -0.98742187 20.96101563 -1.49609375 20.42578125 C-2.13675781 19.72839844 -2.77742188 19.03101562 -3.4375 18.3125 C-4.07558594 17.62800781 -4.71367188 16.94351562 -5.37109375 16.23828125 C-7.16221098 13.77710578 -7.62798558 11.99183426 -8 9 C-3.25 9.75 -3.25 9.75 -1 12 C-1.309375 11.443125 -1.61875 10.88625 -1.9375 10.3125 C-3.05761821 7.87459567 -3.56037364 5.63775814 -4 3 C-2.68 3 -1.36 3 0 3 C0 2.01 0 1.02 0 0 Z M-4 29 C-4 29.66 -4 30.32 -4 31 C-2.68 31.33 -1.36 31.66 0 32 C0 30.68 0 29.36 0 28 C-2.0745356 27.8509288 -2.0745356 27.8509288 -4 29 Z M4 28 C4 29.65 4 31.3 4 33 C5.32 32.34 6.64 31.68 8 31 C8 30.34 8 29.68 8 29 C6.68 28.67 5.36 28.34 4 28 Z M-8 35 C-8 36.32 -8 37.64 -8 39 C-6.68 38.67 -5.36 38.34 -4 38 C-4 37.34 -4 36.68 -4 36 C-5.32 35.67 -6.64 35.34 -8 35 Z M8 36 C8 36.66 8 37.32 8 38 C9.32 38.33 10.64 38.66 12 39 C12 37.68 12 36.36 12 35 C9.9254644 34.8509288 9.9254644 34.8509288 8 36 Z M4 41 C4 42.65 4 44.3 4 46 C5.32 45.67 6.64 45.34 8 45 C8 44.34 8 43.68 8 43 C6.68 42.34 5.36 41.68 4 41 Z M-4 43 C-4 43.66 -4 44.32 -4 45 C-2.68 45.33 -1.36 45.66 0 46 C0 44.68 0 43.36 0 42 C-2.0745356 41.8509288 -2.0745356 41.8509288 -4 43 Z " fill="#2EA7FF" transform="translate(46,11)"/>
<path d="M0 0 C0.66 0 1.32 0 2 0 C2.95261487 4.76307437 3.08333357 9.1666528 3 14 C4.98 12.35 6.96 10.7 9 9 C7.90101148 11.56430654 6.93214232 13.06386605 4.875 15 C2.54403925 17.02944747 2.54403925 17.02944747 3 21 C4.4166747 22.7511573 4.4166747 22.7511573 6 24 C4.68 23.67 3.36 23.34 2 23 C2 26.3 2 29.6 2 33 C3.11375 32.34 4.2275 31.68 5.375 31 C8.75 29 8.75 29 11 29 C11 28.34 11 27.68 11 27 C10.01 26.67 9.02 26.34 8 26 C8.66 25.67 9.32 25.34 10 25 C12.625 25.9375 12.625 25.9375 15 27 C14.67 29.31 14.34 31.62 14 34 C15.65 34 17.3 34 19 34 C19 34.66 19 35.32 19 36 C17.35 36 15.7 36 14 36 C14.495 39.465 14.495 39.465 15 43 C12.69 43.66 10.38 44.32 8 45 C8.495 44.01 8.495 44.01 9 43 C9.66 43 10.32 43 11 43 C11 42.34 11 41.68 11 41 C9.88625 40.566875 9.88625 40.566875 8.75 40.125 C6.4551718 39.18620664 4.21766895 38.10883447 2 37 C2 40.3 2 43.6 2 47 C3.98 46.505 3.98 46.505 6 46 C5.505 46.391875 5.01 46.78375 4.5 47.1875 C2.54406857 49.55091715 2.75792027 51.01435003 3 54 C3.66 54.33 4.32 54.66 5 55 C5 55.66 5 56.32 5 57 C4.01 57 3.02 57 2 57 C2.185625 58.216875 2.37125 59.43375 2.5625 60.6875 C2.98993182 64.02977939 2.92258883 66.71968417 2 70 C1.34 70 0.68 70 0 70 C-0.33 69.01 -0.66 68.02 -1 67 C-1.66 66.67 -2.32 66.34 -3 66 C-2.01 65.01 -2.01 65.01 -1 64 C-0.83322718 60.41656024 -0.83322718 60.41656024 -1 57 C-2.32 58.32 -3.64 59.64 -5 61 C-5.66 60.67 -6.32 60.34 -7 60 C-6.566875 59.62488281 -6.13375 59.24976563 -5.6875 58.86328125 C-2.06681108 55.67333921 -2.06681108 55.67333921 -0.5625 51.25 C-0.90028689 48.97586562 -0.90028689 48.97586562 -2 47 C-1.34 47 -0.68 47 0 47 C0 43.7 0 40.4 0 37 C-1.11375 37.66 -2.2275 38.32 -3.375 39 C-6.75 41 -6.75 41 -9 41 C-9 41.66 -9 42.32 -9 43 C-11.475 43.495 -11.475 43.495 -14 44 C-14.99 47.96 -15.98 51.92 -17 56 C-18.10191901 51.59232396 -17.58706842 50.1077065 -16 46 C-18.94079782 44.52960109 -21.97578226 43.28809274 -25 42 C-20.91556885 40.46833832 -17.20544343 41.36918348 -13 42 C-12.505 39.03 -12.505 39.03 -12 36 C-13.65 36 -15.3 36 -17 36 C-17 35.34 -17 34.68 -17 34 C-15.35 34 -13.7 34 -12 34 C-12.33 32.02 -12.66 30.04 -13 28 C-17.37934119 28.51958285 -21.68803391 29.05675742 -26 30 C-26 29.34 -26 28.68 -26 28 C-25.44570313 27.79503906 -24.89140625 27.59007813 -24.3203125 27.37890625 C-23.59585937 27.10949219 -22.87140625 26.84007813 -22.125 26.5625 C-21.40570312 26.29566406 -20.68640625 26.02882813 -19.9453125 25.75390625 C-17.96351155 25.02083146 -17.96351155 25.02083146 -16 24 C-16.66 21.03 -17.32 18.06 -18 15 C-17.34 15.33 -16.68 15.66 -16 16 C-15.3671875 18.28515625 -15.3671875 18.28515625 -14.875 21.0625 C-14.70742188 21.98160156 -14.53984375 22.90070312 -14.3671875 23.84765625 C-14.24601562 24.55792969 -14.12484375 25.26820312 -14 26 C-12.35 26.33 -10.7 26.66 -9 27 C-9 27.66 -9 28.32 -9 29 C-7.88625 29.433125 -7.88625 29.433125 -6.75 29.875 C-4.4551718 30.81379336 -2.21766895 31.89116553 0 33 C0 29.7 0 26.4 0 23 C-0.66 22.67 -1.32 22.34 -2 22 C-1.67 21.67 -1.34 21.34 -1 21 C-0.70613847 17.27775401 -0.85190829 16.22213757 -3 13 C-2.34 13 -1.68 13 -1 13 C-0.70437633 7.67829506 -0.70437633 7.67829506 -3 3 C-2.34 3 -1.68 3 -1 3 C-0.67 2.01 -0.34 1.02 0 0 Z M-9 33 C-9 34.32 -9 35.64 -9 37 C-7.68 36.67 -6.36 36.34 -5 36 C-5 35.34 -5 34.68 -5 34 C-6.32 33.67 -7.64 33.34 -9 33 Z M7 34 C7 34.66 7 35.32 7 36 C8.32 36.33 9.64 36.66 11 37 C11 35.68 11 34.36 11 33 C8.9254644 32.8509288 8.9254644 32.8509288 7 34 Z " fill="#5AB9FF" transform="translate(47,13)"/>
<path d="M0 0 C1.04449911 3.13349732 0.93423645 3.98968256 0 7 C-2.31 7 -4.62 7 -7 7 C-4.525 7.99 -4.525 7.99 -2 9 C-2 10.32 -2 11.64 -2 13 C-6.78478822 13.09764874 -11.27685687 12.77112541 -16 12 C-16.33 12.99 -16.66 13.98 -17 15 C-15.02 15 -13.04 15 -11 15 C-11 16.32 -11 17.64 -11 19 C-12.98 19 -14.96 19 -17 19 C-16.67 19.99 -16.34 20.98 -16 22 C-11.38 21.67 -6.76 21.34 -2 21 C-2 22.32 -2 23.64 -2 25 C-3.65 25.66 -5.3 26.32 -7 27 C-7 27.66 -7 28.32 -7 29 C-9.86724686 28.42655063 -10.8614515 28.1385485 -13 26 C-10.03 25.34 -7.06 24.68 -4 24 C-4 23.34 -4 22.68 -4 22 C-4.88751953 22.34224609 -4.88751953 22.34224609 -5.79296875 22.69140625 C-13.64147627 25.54657293 -13.64147627 25.54657293 -18 24 C-18 22.02 -18 20.04 -18 18 C-16.35 18 -14.7 18 -13 18 C-13 17.34 -13 16.68 -13 16 C-14.65 16 -16.3 16 -18 16 C-18 14.02 -18 12.04 -18 10 C-14.54201537 8.9193798 -12.17676475 9.07551311 -8.75 10 C-7.5125 10.33 -6.275 10.66 -5 11 C-4.67 10.67 -4.34 10.34 -4 10 C-8.455 9.01 -8.455 9.01 -13 8 C-10.9375 5.9375 -10.9375 5.9375 -8 4 C-4.1875 4.25 -4.1875 4.25 -1 5 C-1.33 4.01 -1.66 3.02 -2 2 C-1.34 1.34 -0.68 0.68 0 0 Z " fill="#28A4FF" transform="translate(79,31)"/>
<path d="M0 0 C0 0.66 0 1.32 0 2 C-3.465 3.485 -3.465 3.485 -7 5 C-3.18243176 6.37432457 0.07255329 5.67975039 4 5 C4.9392247 8.65254051 5.2652614 11.39887139 4 15 C2.1875 16.375 2.1875 16.375 0 17 C-2.25 16.625 -2.25 16.625 -4 16 C-4.33 14.02 -4.66 12.04 -5 10 C-5.66 10 -6.32 10 -7 10 C-7.33 11.98 -7.66 13.96 -8 16 C-10.46301423 13.53698577 -10.76766521 11.72639964 -11.625 8.375 C-11.88539062 7.37210938 -12.14578125 6.36921875 -12.4140625 5.3359375 C-12.60742188 4.56507812 -12.80078125 3.79421875 -13 3 C-11.2092015 2.49689942 -9.41733089 1.99761372 -7.625 1.5 C-6.62726563 1.2215625 -5.62953125 0.943125 -4.6015625 0.65625 C-2 0 -2 0 0 0 Z " fill="#2AA5FF" transform="translate(75,53)"/>
<path d="M0 0 C1.65 0 3.3 0 5 0 C4.67 2.31 4.34 4.62 4 7 C4.66 7 5.32 7 6 7 C6.66 4.69 7.32 2.38 8 0 C10.92879371 0.62759865 13.36095629 1.58622659 16 3 C15.67 3.78375 15.34 4.5675 15 5.375 C13.88133489 7.84332497 13.88133489 7.84332497 14 10 C12.906875 9.938125 11.81375 9.87625 10.6875 9.8125 C7.07873917 9.64402086 7.07873917 9.64402086 5.0625 11.5 C4.711875 11.995 4.36125 12.49 4 13 C6.31 13.66 8.62 14.32 11 15 C10.67 15.66 10.34 16.32 10 17 C6.04 16.01 2.08 15.02 -2 14 C-1.44661458 11.72135417 -0.89322917 9.44270833 -0.33984375 7.1640625 C0.22109319 4.95838716 0.22109319 4.95838716 -1 3 C-0.67 2.01 -0.34 1.02 0 0 Z " fill="#2AA5FF" transform="translate(64,26)"/>
<path d="M0 0 C0.66 0.33 1.32 0.66 2 1 C2.6328125 3.28515625 2.6328125 3.28515625 3.125 6.0625 C3.29257812 6.98160156 3.46015625 7.90070312 3.6328125 8.84765625 C3.75398438 9.55792969 3.87515625 10.26820312 4 11 C5.65 11.33 7.3 11.66 9 12 C9 12.66 9 13.32 9 14 C10.65 14.66 12.3 15.32 14 16 C13.34 16.33 12.68 16.66 12 17 C10.68 16.34 9.36 15.68 8 15 C8 18.3 8 21.6 8 25 C9.98 24.34 11.96 23.68 14 23 C12.625 24.5 12.625 24.5 11 26 C10.34 26 9.68 26 9 26 C9 26.66 9 27.32 9 28 C7.35 28.33 5.7 28.66 4 29 C3.01 32.96 2.02 36.92 1 41 C-0.10191901 36.59232396 0.41293158 35.1077065 2 31 C-0.94079782 29.52960109 -3.97578226 28.28809274 -7 27 C-2.91556885 25.46833832 0.79455657 26.36918348 5 27 C5.33 25.02 5.66 23.04 6 21 C4.35 21 2.7 21 1 21 C1 20.34 1 19.68 1 19 C2.65 19 4.3 19 6 19 C5.67 17.02 5.34 15.04 5 13 C0.62065881 13.51958285 -3.68803391 14.05675742 -8 15 C-8 14.34 -8 13.68 -8 13 C-7.44570313 12.79503906 -6.89140625 12.59007812 -6.3203125 12.37890625 C-5.59585937 12.10949219 -4.87140625 11.84007812 -4.125 11.5625 C-3.40570312 11.29566406 -2.68640625 11.02882813 -1.9453125 10.75390625 C0.03648845 10.02083146 0.03648845 10.02083146 2 9 C1.34 6.03 0.68 3.06 0 0 Z " fill="#5CBAFF" transform="translate(29,28)"/>
<path d="M0 0 C0.66 0 1.32 0 2 0 C2.95261487 4.76307437 3.08333357 9.1666528 3 14 C4.98 12.35 6.96 10.7 9 9 C7.90101148 11.56430654 6.93214232 13.06386605 4.875 15 C2.54403925 17.02944747 2.54403925 17.02944747 3 21 C4.4166747 22.7511573 4.4166747 22.7511573 6 24 C4.68 23.67 3.36 23.34 2 23 C2 26.3 2 29.6 2 33 C3.98 32.34 5.96 31.68 8 31 C6.625 32.5 6.625 32.5 5 34 C4.34 34 3.68 34 3 34 C3 34.66 3 35.32 3 36 C1.68 36 0.36 36 -1 36 C-1 35.34 -1 34.68 -1 34 C-1.99 33.67 -2.98 33.34 -4 33 C-3.01 32.505 -3.01 32.505 -2 32 C-1.34 32.33 -0.68 32.66 0 33 C0 29.7 0 26.4 0 23 C-0.66 22.67 -1.32 22.34 -2 22 C-1.67 21.67 -1.34 21.34 -1 21 C-0.70613847 17.27775401 -0.85190829 16.22213757 -3 13 C-2.34 13 -1.68 13 -1 13 C-0.70437633 7.67829506 -0.70437633 7.67829506 -3 3 C-2.34 3 -1.68 3 -1 3 C-0.67 2.01 -0.34 1.02 0 0 Z " fill="#5AB9FF" transform="translate(47,13)"/>
<path d="M0 0 C2 2 2 2 2 6 C2.804375 6.268125 3.60875 6.53625 4.4375 6.8125 C5.283125 7.204375 6.12875 7.59625 7 8 C7.33 8.99 7.66 9.98 8 11 C5.69 11.66 3.38 12.32 1 13 C1.33 12.01 1.66 11.02 2 10 C-0.31 10 -2.62 10 -5 10 C-5.79953138 6.71303767 -6.09658936 5.28976808 -5 2 C-3.02 2.495 -3.02 2.495 -1 3 C-0.67 2.01 -0.34 1.02 0 0 Z " fill="#29A6FF" transform="translate(22,28)"/>
<path d="M0 0 C1.9375 0.375 1.9375 0.375 4 1 C4.33 1.66 4.66 2.32 5 3 C6.97888961 3.72693904 8.97954558 4.39816251 11 5 C10.25 6.9375 10.25 6.9375 9 9 C6.875 9.75 6.875 9.75 5 10 C4.67 11.98 4.34 13.96 4 16 C3.34 15.01 2.68 14.02 2 13 C0.68 13.33 -0.64 13.66 -2 14 C-1.01 13.01 -0.02 12.02 1 11 C0.34 10.01 -0.32 9.02 -1 8 C0.98 7.34 2.96 6.68 5 6 C2.525 5.01 2.525 5.01 0 4 C0 2.68 0 1.36 0 0 Z " fill="#2BA6FF" transform="translate(19,52)"/>
<path d="M0 0 C2.31 0.66 4.62 1.32 7 2 C6.67 4.31 6.34 6.62 6 9 C7.65 9 9.3 9 11 9 C11 9.66 11 10.32 11 11 C9.35 11 7.7 11 6 11 C6.33 13.31 6.66 15.62 7 18 C4.69 18.66 2.38 19.32 0 20 C0.33 19.34 0.66 18.68 1 18 C1.66 18 2.32 18 3 18 C3 17.34 3 16.68 3 16 C2.01 15.67 1.02 15.34 0 15 C0.66 14.67 1.32 14.34 2 14 C2.66 14.33 3.32 14.66 4 15 C4 11.7 4 8.4 4 5 C2.68 5.33 1.36 5.66 0 6 C0.33 5.34 0.66 4.68 1 4 C1.66 4 2.32 4 3 4 C3 3.34 3 2.68 3 2 C2.01 1.67 1.02 1.34 0 1 C0 0.67 0 0.34 0 0 Z " fill="#5BBAFF" transform="translate(55,38)"/>
<path d="M0 0 C2.0625 0.4375 2.0625 0.4375 4 1 C4 1.66 4 2.32 4 3 C3.01 3 2.02 3 1 3 C1.185625 4.216875 1.37125 5.43375 1.5625 6.6875 C1.98993182 10.02977939 1.92258883 12.71968417 1 16 C0.34 16 -0.32 16 -1 16 C-1.33 15.01 -1.66 14.02 -2 13 C-2.66 12.67 -3.32 12.34 -4 12 C-3.34 11.34 -2.68 10.68 -2 10 C-1.5769311 7.83000806 -1.5769311 7.83000806 -1.4375 5.4375 C-1.09722222 1.09722222 -1.09722222 1.09722222 0 0 Z " fill="#56B8FF" transform="translate(48,67)"/>
<path d="M0 0 C0 0.66 0 1.32 0 2 C-3.465 3.485 -3.465 3.485 -7 5 C-6.67 5.66 -6.34 6.32 -6 7 C-7.32 6.67 -8.64 6.34 -10 6 C-9.649375 6.9075 -9.29875 7.815 -8.9375 8.75 C-8 12 -8 12 -9 16 C-10.32 11.71 -11.64 7.42 -13 3 C-2.25 0 -2.25 0 0 0 Z " fill="#5CBAFF" transform="translate(75,53)"/>
<path d="M0 0 C3.40312738 1.05875074 6.01353231 2.00902154 9 4 C9 4.66 9 5.32 9 6 C2.25 10 2.25 10 0 10 C0 6.7 0 3.4 0 0 Z M1 3 C1 4.32 1 5.64 1 7 C2.32 6.67 3.64 6.34 5 6 C5 5.34 5 4.68 5 4 C3.68 3.67 2.36 3.34 1 3 Z " fill="#2AA4FF" transform="translate(37,43)"/>
<path d="M0 0 C0 3.3 0 6.6 0 10 C-3.0831351 8.80100302 -6.06279492 7.52299523 -9 6 C-9 5.34 -9 4.68 -9 4 C-2.25 0 -2.25 0 0 0 Z M-5 4 C-5 4.66 -5 5.32 -5 6 C-3.68 6.33 -2.36 6.66 -1 7 C-1 5.68 -1 4.36 -1 3 C-3.0745356 2.8509288 -3.0745356 2.8509288 -5 4 Z " fill="#29A6FF" transform="translate(59,43)"/>
<path d="M0 0 C0 3.3 0 6.6 0 10 C-3.0831351 8.80100302 -6.06279492 7.52299523 -9 6 C-9 5.34 -9 4.68 -9 4 C-2.25 0 -2.25 0 0 0 Z M-5 4 C-5 4.66 -5 5.32 -5 6 C-3.68 6.33 -2.36 6.66 -1 7 C-1 5.68 -1 4.36 -1 3 C-3.0745356 2.8509288 -3.0745356 2.8509288 -5 4 Z " fill="#2AA7FF" transform="translate(47,36)"/>
<path d="M0 0 C0.99 0.33 1.98 0.66 3 1 C3.94921875 3.28515625 3.94921875 3.28515625 4.6875 6.0625 C4.93886719 6.98160156 5.19023438 7.90070312 5.44921875 8.84765625 C5.63097656 9.55792969 5.81273438 10.26820312 6 11 C6.33 10.34 6.66 9.68 7 9 C7.66 9 8.32 9 9 9 C9 10.65 9 12.3 9 14 C7.35 14 5.7 14 4 14 C3.70996094 12.84371094 3.70996094 12.84371094 3.4140625 11.6640625 C3.15367188 10.66117188 2.89328125 9.65828125 2.625 8.625 C2.36976562 7.62726562 2.11453125 6.62953125 1.8515625 5.6015625 C1.17595681 2.87458985 1.17595681 2.87458985 -1 1 C-0.67 0.67 -0.34 0.34 0 0 Z " fill="#29A4FF" transform="translate(60,56)"/>
<path d="M0 0 C1.25541557 3.76624671 0.37061958 5.37188934 -1 9 C0.32 8.67 1.64 8.34 3 8 C2.67 8.99 2.34 9.98 2 11 C4.31 11.66 6.62 12.32 9 13 C8.67 13.66 8.34 14.32 8 15 C2.06 13.515 2.06 13.515 -4 12 C-1.125 1.125 -1.125 1.125 0 0 Z " fill="#5FBBFF" transform="translate(66,28)"/>
<path d="M0 0 C5.3592233 0.46601942 5.3592233 0.46601942 7.875 2.5625 C8.431875 3.2740625 8.431875 3.2740625 9 4 C7.35 4.66 5.7 5.32 4 6 C4 6.66 4 7.32 4 8 C3.34 7.67 2.68 7.34 2 7 C1.65657551 5.66923011 1.32380126 4.33568021 1 3 C0.34 2.34 -0.32 1.68 -1 1 C-0.67 0.67 -0.34 0.34 0 0 Z " fill="#46B1FF" transform="translate(36,56)"/>
<path d="M0 0 C0.66 0.33 1.32 0.66 2 1 C0.7934375 1.309375 0.7934375 1.309375 -0.4375 1.625 C-1.7059375 2.305625 -1.7059375 2.305625 -3 3 C-3.89830839 6.05272465 -3.89830839 6.05272465 -4 9 C-4.66 8.01 -5.32 7.02 -6 6 C-7.32 6.33 -8.64 6.66 -10 7 C-9.01 6.01 -8.02 5.02 -7 4 C-7.66 3.01 -8.32 2.02 -9 1 C-7.88625 1.020625 -6.7725 1.04125 -5.625 1.0625 C-2.16784079 1.26380718 -2.16784079 1.26380718 0 0 Z " fill="#5FBCFF" transform="translate(27,59)"/>
<path d="M0 0 C2 2 2 2 2 6 C4.475 6.99 4.475 6.99 7 8 C4.11301479 9.4434926 2.10530768 8.63373626 -1 8 C-1.99 7.67 -2.98 7.34 -4 7 C-3.34 6.34 -2.68 5.68 -2 5 C-2.99 4.01 -3.98 3.02 -5 2 C-3.68 2.33 -2.36 2.66 -1 3 C-0.67 2.01 -0.34 1.02 0 0 Z " fill="#5FBCFF" transform="translate(22,28)"/>
<path d="M0 0 C2.97 0 5.94 0 9 0 C8.01 1.485 8.01 1.485 7 3 C7.99 3.99 8.98 4.98 10 6 C8.68 5.67 7.36 5.34 6 5 C5.01 6.485 5.01 6.485 4 8 C3.67 6.02 3.34 4.04 3 2 C2.01 1.67 1.02 1.34 0 1 C0 0.67 0 0.34 0 0 Z " fill="#60BCFF" transform="translate(69,60)"/>
<path d="M0 0 C0.66 0.99 1.32 1.98 2 3 C3.32 2.67 4.64 2.34 6 2 C5.01 3.32 4.02 4.64 3 6 C3.66 6.66 4.32 7.32 5 8 C2.03 8 -0.94 8 -4 8 C-3.67 7.34 -3.34 6.68 -3 6 C-2.34 6 -1.68 6 -1 6 C-0.67 4.02 -0.34 2.04 0 0 Z " fill="#61BCFF" transform="translate(73,28)"/>
</svg>
